<svg xmlns="http://www.w3.org/2000/svg" xmlns:xlink="http://www.w3.org/1999/xlink" viewBox="0 0 227 60"><defs><style>.cls-1{isolation:isolate;}.cls-2{font-size:34.56px;font-family:Kanit-Bold, Kanit;font-weight:700;}.cls-3{letter-spacing:-0.01em;}.cls-4{letter-spacing:-0.05em;}.cls-5{letter-spacing:0em;}.cls-6{fill:#fff;}.cls-7{fill:#ffd42e;}.cls-8{fill:#ee3e01;}.cls-10,.cls-9{opacity:0.5;mix-blend-mode:multiply;}.cls-9{fill:url(#linear-gradient);}.cls-10{fill:url(#linear-gradient-2);}.cls-11{fill:#2ecc71;}.cls-12,.cls-13{opacity:0.75;}.cls-12{fill:url(#linear-gradient-3);}.cls-13{fill:url(#linear-gradient-4);}</style><linearGradient id="linear-gradient" x1="103.1" y1="-16257.51" x2="107.33" y2="-16257.51" gradientTransform="matrix(0, -1, -1, 0, -16222.36, 126.77)" gradientUnits="userSpaceOnUse"><stop offset="0" stop-color="#1a3442"/><stop offset="0.48" stop-color="#8b7241" stop-opacity="0.49"/><stop offset="1" stop-color="#f9ae41" stop-opacity="0"/></linearGradient><linearGradient id="linear-gradient-2" x1="101.39" y1="-71.34" x2="99.93" y2="-75.29" gradientTransform="translate(99.64 126.77) rotate(-90)" gradientUnits="userSpaceOnUse"><stop offset="0" stop-color="#1a3442"/><stop offset="0.29" stop-color="#253a42" stop-opacity="0.95"/><stop offset="0.52" stop-color="#464c42" stop-opacity="0.8"/><stop offset="0.72" stop-color="#7e6a42" stop-opacity="0.55"/><stop offset="0.91" stop-color="#cc9541" stop-opacity="0.2"/><stop offset="1" stop-color="#f9ae41" stop-opacity="0"/></linearGradient><linearGradient id="linear-gradient-3" x1="86.71" y1="-76.91" x2="86.42" y2="-72.53" gradientTransform="translate(99.64 126.77) rotate(-90)" gradientUnits="userSpaceOnUse"><stop offset="0" stop-color="#1a3442"/><stop offset="1" stop-color="#03bdbd" stop-opacity="0"/></linearGradient><linearGradient id="linear-gradient-4" x1="1810.62" y1="-65.29" x2="1810.33" y2="-60.91" gradientTransform="matrix(0, 1, 1, 0, 99.64, -1770.25)" gradientUnits="userSpaceOnUse"><stop offset="0" stop-color="#03bdbd" stop-opacity="0"/><stop offset="1" stop-color="#1a3442"/></linearGradient></defs><title>LOGO Web 220 x 60</title><g class="cls-1"><g id="Layer_1" data-name="Layer 1"><text class="cls-2" transform="translate(3.6 39.85)">J</text><text class="cls-2" transform="translate(43.54 39.85)"><tspan class="cls-3">g</tspan><tspan x="19.32" y="0">o Ber</tspan><tspan class="cls-4" x="102.75" y="0">k</tspan><tspan class="cls-5" x="121.9" y="0">arir</tspan></text><rect x="214.32" y="21.5" width="1.32" height="0.61" transform="translate(13.6 -56.54) rotate(15.47)"/><path d="M215.53,22.35h0L214.24,22a.1.1,0,0,1-.05,0,0,0,0,0,1,0-.05l.16-.59a.08.08,0,0,1,.09-.06l1.27.36a.05.05,0,0,1,0,0,.06.06,0,0,1,0,.06l-.16.59A.08.08,0,0,1,215.53,22.35Zm-1.18-.48,1.12.32.13-.45-1.13-.31Z"/><path class="cls-6" d="M219.9,16.6a3.36,3.36,0,0,0-6.44-1.89,3.32,3.32,0,0,0,.28,2.65,2.8,2.8,0,0,1,.61,2.37l2.23.62c.26-.93.86-1.24,1.7-1.71A3.31,3.31,0,0,0,219.9,16.6Z"/><path d="M216.58,20.42h0l-2.23-.62a.07.07,0,0,1-.05-.09,2.57,2.57,0,0,0-.51-2.15l-.09-.16a3.43,3.43,0,0,1,1.3-4.68A3.43,3.43,0,0,1,219.63,14a3.39,3.39,0,0,1,.34,2.64h0a3.39,3.39,0,0,1-1.65,2.09l-.08.05c-.81.44-1.35.74-1.59,1.61l0,0Zm-2.14-.74,2.09.57c.26-.87.84-1.19,1.63-1.62l.09-.05a3.29,3.29,0,0,0,1.25-4.52,3.28,3.28,0,0,0-5.69,3.27l.09.16A2.71,2.71,0,0,1,214.44,19.68Z"/><path class="cls-7" d="M214,20.12l.29-1,2.64.73-.29,1a1.38,1.38,0,0,1-1.69,1h0A1.37,1.37,0,0,1,214,20.12Z"/><path d="M215.56,22a1,1,0,0,1-.3,0l-.61-.16a1.11,1.11,0,0,1-.68-.54,1.12,1.12,0,0,1-.11-.86h0l.37-1.34a.09.09,0,0,1,.1,0l2.64.73a.07.07,0,0,1,.05.09l-.37,1.34A1.13,1.13,0,0,1,215.56,22ZM214,20.44h0a1,1,0,0,0,.68,1.21l.61.17a1,1,0,0,0,1.2-.69l.36-1.27-2.5-.69Z"/><path d="M216.51,20.23h0l-2-.56a.05.05,0,0,1,0,0s0,0,0,0l2,.56s0,0,0,0Z"/><path d="M217.38,17.1h0l-2-.56s0,0,0,0,0,0,0,0l2,.56s0,0,0,0S217.39,17.1,217.38,17.1Z"/><path d="M217.92,11.24h0a.07.07,0,0,1-.05-.09l.34-1.25a.08.08,0,0,1,.09-.06.09.09,0,0,1,.06.1L218,11.19A.08.08,0,0,1,217.92,11.24Z"/><path d="M221.1,13.44a.08.08,0,0,1-.07,0,.08.08,0,0,1,0-.11l1.13-.64a.08.08,0,0,1,.1,0,.08.08,0,0,1,0,.11l-1.13.64Z"/><path d="M222.8,17.24h0l-1.25-.34a.07.07,0,0,1-.05-.1.07.07,0,0,1,.09-.05l1.25.35a.07.07,0,0,1,.05.09A.09.09,0,0,1,222.8,17.24Z"/><path d="M214.26,11.54a.06.06,0,0,1-.06,0l-.64-1.13a.08.08,0,0,1,0-.11.09.09,0,0,1,.11,0l.64,1.13a.08.08,0,0,1,0,.1Z"/><path d="M212.1,14.27h0l-1.25-.34a.1.1,0,0,1-.06-.1.08.08,0,0,1,.1-.05l1.25.35a.07.07,0,0,1,0,.09A.08.08,0,0,1,212.1,14.27Z"/><path d="M215.17,19.33h0a.08.08,0,0,1-.06-.09s.53-2.35-.26-3.6a.08.08,0,0,1,0-.11.07.07,0,0,1,.1,0c.82,1.31.3,3.62.28,3.71A.08.08,0,0,1,215.17,19.33Z"/><path d="M216.11,19.59h0a.08.08,0,0,1-.05-.1c0-.09.77-2.34,2.15-3a.07.07,0,0,1,.07.13c-1.32.68-2.07,2.94-2.07,3A.08.08,0,0,1,216.11,19.59Z"/><path d="M218.23,16.56h0a.43.43,0,0,1-.28-.26c-.05-.08-.08-.15-.19-.18a.3.3,0,0,0-.26.06.44.44,0,0,1-.66-.18.28.28,0,0,0-.19-.19.28.28,0,0,0-.25.06A.43.43,0,0,1,216,16a.45.45,0,0,1-.28-.26.31.31,0,0,0-.19-.18.3.3,0,0,0-.26.06.46.46,0,0,1-.38.07.07.07,0,1,1,0-.14.3.3,0,0,0,.26-.06.42.42,0,0,1,.38-.08.43.43,0,0,1,.28.26c.05.09.08.15.19.18a.3.3,0,0,0,.26-.06.43.43,0,0,1,.37-.07.43.43,0,0,1,.29.26.29.29,0,0,0,.19.18.31.31,0,0,0,.26-.06.43.43,0,0,1,.37-.08.45.45,0,0,1,.28.26c.05.09.09.16.19.19a.08.08,0,0,1,.06.09A.08.08,0,0,1,218.23,16.56Z"/></g><g id="Layer_2" data-name="Layer 2"><path class="cls-8" d="M30.92,27.89a8.45,8.45,0,1,0-8.45-8.45A8.45,8.45,0,0,0,30.92,27.89Zm0-12.68a4.23,4.23,0,1,1-4.22,4.23A4.22,4.22,0,0,1,30.92,15.21Z"/><rect class="cls-8" x="22.47" y="23.66" width="8.45" height="4.22" transform="translate(53.39 51.55) rotate(-180)"/><rect class="cls-8" x="30.92" y="23.66" width="8.45" height="4.22" transform="translate(70.29 51.55) rotate(-180)"/><polygon class="cls-8" points="30.92 49.01 42.54 37.39 42.54 37.39 42.54 23.66 38.31 23.66 38.31 35.65 38.31 35.65 30.92 43.04 23.53 35.65 23.53 23.66 19.3 23.66 19.3 37.4 30.92 49.01"/><path class="cls-9" d="M30.92,23.66h7.32a8.37,8.37,0,0,0,1.13-4.22H35.14A4.22,4.22,0,0,1,30.92,23.66Z"/><path class="cls-10" d="M23.53,27.89h7.39a8.44,8.44,0,0,1-7.32-4.23h-.07Z"/><polygon class="cls-11" points="23.53 35.65 23.53 41.62 30.92 49.01 38.31 41.62 38.31 35.65 30.92 43.04 23.53 35.65"/><polygon class="cls-12" points="23.53 41.62 26.7 44.79 26.7 38.81 23.53 35.65 23.53 41.62"/><polygon class="cls-13" points="35.15 38.81 35.15 44.79 38.31 41.62 38.31 35.65 35.15 38.81"/><polygon points="157.79 20.99 157.04 20.43 156.87 16.62 158.46 18.8 157.79 20.99"/><path d="M157.79,21s0,0,0,0l-.75-.56s0,0,0,0l-.17-3.8a0,0,0,0,1,.08,0l1.58,2.18s0,0,0,0L157.83,21s0,0,0,0Zm-.7-.63.68.52.64-2.11-1.49-2Z"/><polygon points="162.09 17.86 161.78 16.97 158.22 15.64 159.81 17.82 162.09 17.86"/><path d="M162.09,17.9h0l-2.29,0,0,0-1.59-2.18a0,0,0,0,1,0-.05.06.06,0,0,1,0,0l3.57,1.34a0,0,0,0,1,0,0l.31.88s0,0,0,0Zm-2.26-.12,2.2,0-.28-.81-3.42-1.28Z"/><path class="cls-7" d="M158.37,19.27,155.48,16A5.71,5.71,0,0,1,154,11.29h0A5.81,5.81,0,0,1,158,14l2.31,3.86Z"/><path d="M158.37,19.32l0,0-2.9-3.3A5.78,5.78,0,0,1,154,11.28l0,0h0A5.87,5.87,0,0,1,158,14l2.3,3.85s0,.05,0,.06l-1.91,1.39Zm-4.32-8A5.75,5.75,0,0,0,155.51,16l2.87,3.27,1.84-1.35-2.28-3.82A5.79,5.79,0,0,0,154.05,11.34Z"/><path class="cls-6" d="M155.81,14.83a.64.64,0,0,1,1-.75.64.64,0,0,1-1,.75Z"/><path d="M156.32,15.13a.68.68,0,0,1-.4-1.23.68.68,0,0,1,1,.15.68.68,0,0,1-.15.95A.66.66,0,0,1,156.32,15.13Zm0-1.27a.59.59,0,0,0-.48.94h0a.58.58,0,0,0,.83.13.6.6,0,0,0-.26-1.07Z"/><rect class="cls-6" x="158.53" y="18.52" width="1.97" height="0.68" transform="translate(19.46 97.51) rotate(-36.06)"/><path d="M158.92,19.76l0,0-.4-.55s0,0,0,0a0,0,0,0,1,0,0L160.08,18h.06l.4.55s0,0,0,.06l-1.59,1.16Zm-.34-.58.35.48,1.52-1.11-.35-.48Z"/><path d="M154.24,13.87h0v0l2.17-1.58h0v0l-2.16,1.57Z"/><path d="M160.16,22.06a0,0,0,0,1,0,0,5.76,5.76,0,0,0-.4-1.46.05.05,0,0,1,0,0,0,0,0,0,1,.05,0,5.51,5.51,0,0,1,.4,1.48,0,0,0,0,1,0,0Z"/><path d="M159.59,20.27s0,0,0,0l-.18-.29a0,0,0,0,1,0-.06,0,0,0,0,1,.06,0l.18.3a0,0,0,0,1,0,.05Z"/><path d="M160.32,23.3l0,0a.58.58,0,0,1-.16-.38,1.84,1.84,0,0,1,0-.41,0,0,0,0,1,.05,0s0,0,0,0a1.71,1.71,0,0,0,0,.39.53.53,0,0,0,.14.34.06.06,0,0,1,0,.06Z"/><path d="M161.39,20.54h0a9.94,9.94,0,0,1-1-1.23,0,0,0,0,1,0-.05,0,0,0,0,1,.06,0,10.45,10.45,0,0,0,1,1.21,0,0,0,0,1,0,.06Z"/><path d="M162.18,21h0l-.38-.17a.05.05,0,0,1,0-.05,0,0,0,0,1,.06,0l.38.17a0,0,0,0,1,0,.05A0,0,0,0,1,162.18,21Z"/><path d="M161.9,26.76h-.1a1.22,1.22,0,0,1-1.07-1.07,1.06,1.06,0,0,1-1,.33,1,1,0,0,1-.77-.87,2,2,0,0,1,.67-1.43,0,0,0,0,1,.06,0s0,0,0,.06a1.9,1.9,0,0,0-.65,1.36,1,1,0,0,0,.71.8,1,1,0,0,0,1-.4s0,0,0,0,0,0,0,0a1.17,1.17,0,0,0,1,1.11,1.15,1.15,0,0,0,1.18-.92.05.05,0,0,1,0,0,1.2,1.2,0,0,0,1-.45,1.19,1.19,0,0,0,.19-1.06.06.06,0,0,1,0-.06s0,0,0,0a1.29,1.29,0,0,1-.2,1.14,1.26,1.26,0,0,1-1,.48A1.23,1.23,0,0,1,161.9,26.76Z"/><path d="M164.91,22a.05.05,0,0,1,0,0,0,0,0,0,1,0-.06.72.72,0,0,0-.41-1.34c-.07,0-.18,0-.22-.07a.17.17,0,0,1,0-.14.93.93,0,0,0-.06-.68.67.67,0,0,0-.71-.28,1.19,1.19,0,0,0-.69.44,0,0,0,0,1-.06,0,0,0,0,0,1,0-.06,1.34,1.34,0,0,1,.74-.48.78.78,0,0,1,.81.33,1,1,0,0,1,.06.73s0,.07,0,.09.08,0,.14,0a.85.85,0,0,1,.83.57.84.84,0,0,1-.37.93Z"/><path d="M161.08,21.7s0,0,0,0q-.57-.9-1.08-1.83s0,0,0-.05a0,0,0,0,1,.06,0c.34.62.7,1.23,1.08,1.82a0,0,0,0,1,0,.06Z"/><path d="M161.69,22.63l0,0-.36-.53a.06.06,0,0,1,0-.06s.05,0,.06,0l.36.53s0,.05,0,.06Z"/><path d="M94.45,43.57a4.31,4.31,0,0,1-3.6-6.66.12.12,0,1,1,.2.12,4.07,4.07,0,1,0,3.34-1.84,4.17,4.17,0,0,0-2.25.72.12.12,0,0,1-.17,0,.14.14,0,0,1,0-.17A4.31,4.31,0,0,1,94.38,35h.07a4.31,4.31,0,0,1,.07,8.61Z"/><path d="M94.45,46.17A6.91,6.91,0,0,1,88.94,35.1a.12.12,0,1,1,.19.15,6.57,6.57,0,0,0-1.34,4.12,6.68,6.68,0,0,0,6.66,6.56h.11a6.67,6.67,0,1,0-4.31-11.85.11.11,0,1,1-.14-.18,6.8,6.8,0,0,1,4.23-1.54,6.9,6.9,0,1,1,.23,13.8Z"/><path class="cls-7" d="M96.27,39.23a1.82,1.82,0,1,0-1.79,1.85A1.83,1.83,0,0,0,96.27,39.23Z"/><path d="M94.45,41.2a1.95,1.95,0,0,1-1.93-1.91,1.94,1.94,0,0,1,3.28-1.42,1.94,1.94,0,0,1-1.31,3.33Zm0-3.64h0a1.7,1.7,0,0,0-1.2.52,1.76,1.76,0,0,0-.48,1.21,1.7,1.7,0,0,0,2.93,1.15,1.67,1.67,0,0,0,.47-1.21A1.7,1.7,0,0,0,94.45,37.56Z"/><path d="M94.45,39.38a.13.13,0,0,1-.08,0L86.73,32a.12.12,0,0,1,0-.17.12.12,0,0,1,.17,0l7.65,7.4a.12.12,0,0,1,0,.16A.11.11,0,0,1,94.45,39.38Z"/><polygon points="88.7 33.73 86.79 31.88 85.04 32.08 86.95 33.93 88.7 33.73"/><path d="M87,34.05a.11.11,0,0,1-.08,0L85,32.17a.1.1,0,0,1,0-.12A.1.1,0,0,1,85,32l1.75-.21a.14.14,0,0,1,.09,0l1.92,1.85a.11.11,0,0,1,0,.12.09.09,0,0,1-.09.08L87,34.05ZM85.3,32.17,87,33.81l1.45-.17L86.75,32Z"/><polygon points="88.72 33.71 86.81 31.86 86.94 30.12 88.85 31.97 88.72 33.71"/><path d="M88.72,33.83a.09.09,0,0,1-.08,0L86.73,32a.13.13,0,0,1,0-.1l.13-1.74a.12.12,0,0,1,.08-.1A.11.11,0,0,1,87,30l1.91,1.85a.13.13,0,0,1,0,.1l-.13,1.74a.16.16,0,0,1-.08.1Zm-1.79-2,1.69,1.63L88.73,32,87,30.38Z"/></g></g></svg>