<svg id="Layer_1" data-name="Layer 1" xmlns="http://www.w3.org/2000/svg" viewBox="0 0 348 348"><defs><style>.cls-1{fill:#d5d6da;}.cls-2{fill:#eaeaea;}.cls-3{fill:#fff;}.cls-4{opacity:0.5;}.cls-5{fill:#68a1bf;}.cls-6{fill:#00a3fe;}.cls-7{fill:#ff7955;}.cls-8{fill:#657285;}.cls-9{fill:#131f2d;}.cls-10{fill:#364154;}.cls-11{fill:#5c305d;}.cls-12{fill:#080435;}.cls-13{fill:#020202;}.cls-14{fill:#b05638;}.cls-15{fill:#016eb9;}.cls-16{fill:#a0462d;}.cls-17{fill:#b8c1c9;}.cls-18{fill:#e9633e;}.cls-19{opacity:0.3;}.cls-20{fill:#ec865c;}.cls-21{fill:#daebe8;}.cls-22{fill:#366f90;}.cls-23{opacity:0.4;}</style></defs><title>Jago Berkarir</title><path class="cls-1" d="M195.91,251s37-98.26,61.36-86.46S219,224.48,209,253.45Z"/><path class="cls-2" d="M208.37,237.72s64.87-92.48,92.48-71.59S241.92,217.19,224,244.79Z"/><path class="cls-3" d="M217.08,241.76c12.06-19.31,31.22-35.65,45.17-46a255.16,255.16,0,0,1,27.67-17.94l-.39-.83a256.22,256.22,0,0,0-27.77,18c-14,10.37-33.26,26.79-45.4,46.22Z"/><path class="cls-1" d="M316.34,226.42c-11.78,4.2-7.82,23.62-21.92,21.55-11.93-1.75-13-2.79-16.69,1.27a20.69,20.69,0,0,0-3.14,4.71c-1,2.06-3,5.15-6.52,6.22-21.15,6.56-54-24.38-33.42-45.88,1.49-1.55,3.8-2.35,6.37-3.09,14-4,19.08,2.49,28.48-16.81s27.14,4.78,36.57,2.77,17.52-6,26,4S328.12,222.24,316.34,226.42Z"/><g class="cls-4"><path class="cls-3" d="M244,238.47l-.53-.67c.28-.25,28.27-25,90.63-33.79l.11.88C272.08,213.61,244.27,238.23,244,238.47Z"/><path class="cls-5" d="M280.32,208c-9-7-11.12-13.22-11.21-13.48l.77-.29c0,.06,2.11,6.19,10.92,13.06Z"/><path class="cls-5" d="M282.68,217.27c-2.75-4.13-3.16-10.49-1.18-18.4a62.27,62.27,0,0,1,3.82-10.74l.72.41c-.09.19-9,18.72-2.7,28.22Z"/></g><path class="cls-2" d="M269.18,158.61c1.39-2.16,2.64-2.18,3.67-1.42s1.45,2,.06,4.2c-2.53,3.94-5.62,4.46-5.62,4.46S266.61,162.61,269.18,158.61Z"/><path class="cls-1" d="M131.11,202.92s1.19-45.92-10.39-45.8,5.53,31,4.79,44.32Z"/><path class="cls-2" d="M131,206.55S116.22,144.69,98.06,149s19.89,39.44,23.55,57.57Z"/><path class="cls-3" d="M125.72,206.6c-2.32-12.57-8.83-25.26-13.89-33.7a153.75,153.75,0,0,0-10.52-15.45l.36-.34a156.44,156.44,0,0,1,10.56,15.51c5.08,8.48,11.63,21.23,14,33.89Z"/><path class="cls-2" d="M98.38,218.54c-7.22-.8-1.62,1.47-10.3.94-1.84,3.77-12.09-.2-15.29-5.84-4.08-7.17-4.08-5.52-16.45-4.29-8.87.87-9.25-7.51-12.49-13.84l-.18-.35a11.29,11.29,0,0,0-5.68-5.5,35.07,35.07,0,0,1-8.33-4.84l-.62-.5c-5-4.14-8.12-9.5-5.8-14.55l.17-.35A10.86,10.86,0,0,1,25.16,167c7.76-8.38,14.66-4.52,22.82-2.39,4.5,1.18,11.51-4.49,18.14-6.88l.28-.1c5.26-1.83,10.26-1.5,13.56,6.06h0c.07.15.14.31.2.46,7.4,16.66,12.11,11.32,24,15.36,2.21.76,4.2,1.55,5.44,3C121.23,195.63,111.52,211.55,98.38,218.54Z"/><path class="cls-3" d="M100.64,203.13l.48-.56c-.23-.23-23.76-23-77.82-33.17l-.13.75C77,180.31,100.41,202.9,100.64,203.13Z"/><path class="cls-3" d="M70.05,175.08c8.13-5.77,10.16-11.07,10.24-11.29l-.66-.28c0,.05-2,5.31-10,10.93Z"/><path class="cls-3" d="M67.66,183.06c2.55-3.49,3.13-9,1.68-16a53.75,53.75,0,0,0-3-9.52l-.65.33c.08.16,7.22,16.69,1.36,24.7Z"/><path class="cls-1" d="M68.76,140.33c-1.51-2.47-1.24-3.71-.34-4.35s2.07-.42,3.58,2c2.75,4.48,2.46,7.8,2.46,7.8S71.54,144.87,68.76,140.33Z"/><path class="cls-1" d="M66,149.13c-2.68-.58-3.31-1.67-3.1-2.8S64,144.45,66.71,145c4.9,1,6.88,3.61,6.88,3.61S70.92,150.19,66,149.13Z"/><ellipse class="cls-2" cx="171.44" cy="257.94" rx="158.32" ry="20.53"/><path class="cls-6" d="M98.31,101.88s106,40.79,138.86,68.36c39.5,33.12-66.65,30.32-68.46,41.13S277.56,241.9,277.56,241.9c-5.11,16-79.74,23.72-136.32,12.2-21.82-4.45-50.76-17.81-48.68-41.64,3.4-38.91,75.11-26.68,72.84-40.68s-72.52-61.16-72.52-61.16Z"/><path class="cls-6" d="M110.28,97.08c-8.21-5.94-38.37-12.44-38.82-8.89s15.11,36.91,19.2,35.87S97.12,107,97.12,107,114.72,100.29,110.28,97.08Z"/><path class="cls-7" d="M265.7,216.62c.49.6,1.22,2,1.7,2.64.21.26.86,1.21.64,1.47s-1-.26-1.4-.54c.22,2.29-.4,5.75-1.18,1h0c0,.49.25,3.22-.37,3s-.77-2.13-.84-2.93h0c0,.82,0,2.82-.49,2.46s-.89-2.57-.89-2.57.32,2.73-.41,2.31c-.42-.24-.45-1.82-.46-2.81h0v-.52a1,1,0,0,1,0-.31,12.46,12.46,0,0,1,.39-2.69,1.65,1.65,0,0,1,1.48-1.42A2.49,2.49,0,0,1,265.7,216.62Z"/><path class="cls-8" d="M267.46,217.21c4.64-3.28.16-14.55,2.09-21.56a21.86,21.86,0,0,1,1-3.14c.31-.72-.53-2.14-1.67-2.72s-3.67-.19-3.87.18c-3.12,5.6-4.62,14.74-3.07,26.48C262,216.45,265.47,218.62,267.46,217.21Z"/><path class="cls-9" d="M274.85,258.59s0,1.69-1.1,2.17-4.14.91-3,2c.66.63,3.77.23,4.65.23s1.7.41,2.35-.23,0-4.16,0-4.16a3.3,3.3,0,0,1-1.44.41A2.66,2.66,0,0,1,274.85,258.59Z"/><path class="cls-10" d="M265.68,207.57s-.21,7.63,2.05,22.27c1.63,10.57,3.56,21.21,4.51,26.32a3.79,3.79,0,0,0,3.45,3.23l.91,0a3.24,3.24,0,0,0,3.18-3.62l-2.29-34.53-.57-11.37Z"/><path class="cls-9" d="M288.11,258.35s.61,1.56-.18,2.46-3.43,2.67-2,3.15c.84.27,3.52-1.47,4.32-1.86s1.71-.38,2.06-1.25-1.59-3.79-1.59-3.79a3.66,3.66,0,0,1-1.16,1A2.58,2.58,0,0,1,288.11,258.35Z"/><path class="cls-10" d="M275.07,208.28s.37,7.62,3.74,22c2.43,10.39,5.16,20.83,6.49,25.83A3.74,3.74,0,0,0,289,259l.91,0a3.29,3.29,0,0,0,2.89-3.89l-4.91-34.21-1.43-11.28Z"/><path class="cls-9" d="M288.09,215.93c0,.93-5.19,1.29-11.58,1.08S265,215.84,265,214.92s5.16-1.46,11.56-1.25S288.12,215,288.09,215.93Z"/><path class="cls-8" d="M286.53,189.87s-1.13-4.82-9.47-4.87c-12-.07-10.92,11.83-12,29.92,0,0,11.84-1.58,23.06,1C288.09,215.93,289.14,197.25,286.53,189.87Z"/><path class="cls-8" d="M289.61,189.18l-5.45,3.25s-11.93,1.16-15.1.6a5.15,5.15,0,0,1-4-3.06,17.07,17.07,0,0,1,9.1-4.76,14.82,14.82,0,0,1,1.68-.21,15.58,15.58,0,0,1,2.9.06C286,185.94,289.61,189.18,289.61,189.18Z"/><path class="cls-10" d="M266,215.66s6.93-2.19,21.28.82l.11,2.22-21,.8Z"/><path class="cls-8" d="M290.16,216c-.51-5.95-4.09-21.81-4.57-22.66-.38-.69.3-2.19,1.39-2.91s2.32-1.53,2.63-1.26c4.29,3.9,7.51,18.62,6.35,26.5Z"/><path class="cls-11" d="M275.71,174.85a4.88,4.88,0,0,0-.85,1.83c-.28,1.12,1.84-.86,1.84-.86Z"/><path class="cls-7" d="M279.76,185.21c-.86,1.15-2.41,1-3.62.41-1-.47-.84-.46-.7-.63.33-.41.6-.51.62-1l0-.63v-.08l0-.82.05-1.42.14-3.72,1.08,3.74.18.64.63,2.19C278.41,184.6,279.76,185.21,279.76,185.21Z"/><path class="cls-9" d="M277.74,182.3a2.6,2.6,0,0,1-1.66,1.07v-.08l0-.82Z"/><ellipse class="cls-7" cx="277.17" cy="178.77" rx="3.94" ry="3.15" transform="translate(-2.37 353.81) rotate(-64.88)"/><path class="cls-12" d="M276.57,178.3a.14.14,0,0,1,0-.06s0-.06.07-.06a.68.68,0,0,1,.65.55.08.08,0,0,1,0,.09.07.07,0,0,1-.08,0,1,1,0,0,0-.54-.47Z"/><path class="cls-12" d="M275.06,177.48a.06.06,0,0,1,0,0,.08.08,0,0,1,0-.07.42.42,0,0,1,.58.29.08.08,0,0,1,0,.09,0,0,0,0,1-.06,0,.65.65,0,0,0-.49-.25Z"/><path class="cls-6" d="M277,185.8s-1.47-.49-1.86-.11-.1,2.11.57,2.27S277.7,186.22,277,185.8Z"/><path class="cls-10" d="M276.17,185.39s1.92-.72,2.29-1.45,2.35.95,2.32,1.45-3.6,3.29-3.83,2.94S275.71,185.87,276.17,185.39Z"/><path class="cls-10" d="M276.17,185.39a2.38,2.38,0,0,1-.14-1.18s.09-.36-.2-.34a6.08,6.08,0,0,0-2,1.59c-.14.36-.16,2.07.35,2.19s1.75-1.71,1.89-1.89A.5.5,0,0,0,276.17,185.39Z"/><path class="cls-6" d="M275.34,187.29s-5,14.07-4.7,20c0,0,.35,3.44,2.62,5.3,0,0,3.06-2.16,3.47-5.3.33-2.58-1.16-17.54-.3-19.6Z"/><path class="cls-9" d="M275.76,188h0c-.44,0-.69-.95-.7-1l.07,0s.24.93.63.93h0a1.24,1.24,0,0,0,.76-.4l.06,0A1.31,1.31,0,0,1,275.76,188Z"/><path class="cls-9" d="M279.37,177.2a2.88,2.88,0,0,1-2.69.06s-.14-.16.19-.2.91-.31.88-.51-1.84.8-2.93.11c0,0-1.53-.9-.16-1.41.85-.32,1.43-3.07,5.27-1.29.56.27,1.7,1,1.71,2.12a2.28,2.28,0,0,1,.91,2.84,3.74,3.74,0,0,1-3.85,2.88s1.75-2.13.93-2.18c-1.06-.05-1.27-.83-.64-1.16S280.19,177.12,279.37,177.2Z"/><path class="cls-7" d="M279.6,180.89a.66.66,0,0,1-.73-.57.68.68,0,0,1,.61-.72.65.65,0,0,1,.73.57A.67.67,0,0,1,279.6,180.89Z"/><path class="cls-9" d="M282.79,176.84a.08.08,0,0,1-.07-.05,1.32,1.32,0,0,0-.91-.82.07.07,0,0,1-.05-.09.08.08,0,0,1,.08-.06,1.46,1.46,0,0,1,1,.93.07.07,0,0,1-.05.09Z"/><path class="cls-9" d="M281.79,175.48h0a.08.08,0,0,1,0-.1s.2-.34-.2-.78a.07.07,0,0,1,.1-.1c.49.53.23.94.22,1A.06.06,0,0,1,281.79,175.48Z"/><ellipse class="cls-9" cx="293.06" cy="215.85" rx="2.91" ry="1.56" transform="translate(-13.07 18.98) rotate(-3.63)"/><path class="cls-9" d="M265,214.92c0-.12-1-12.92,2.47-20.85l.14.05c-3.44,7.9-2.47,20.66-2.46,20.79Z"/><path class="cls-9" d="M288.23,203.44a22.49,22.49,0,0,0-2.81-6.86l.12-.08a22.91,22.91,0,0,1,2.84,6.91Z"/><path class="cls-12" d="M274.85,178.22c0,.14,0,.28.09.31s.2-.05.24-.18a.24.24,0,0,0-.08-.31A.22.22,0,0,0,274.85,178.22Z"/><path class="cls-12" d="M276.28,179a.26.26,0,0,0,.09.31c.09,0,.2,0,.25-.19a.26.26,0,0,0-.09-.31C276.44,178.82,276.33,178.9,276.28,179Z"/><path class="cls-13" d="M277.62,225.47s-.6-3-1.17-5.29a4.15,4.15,0,0,0-2.76-2.88l.06-.21a4.41,4.41,0,0,1,2.92,3c.57,2.33,1.17,5.27,1.17,5.3Z"/><path class="cls-9" d="M291.28,226.28h-.9l.07-3.83a2,2,0,0,1,1.62-1.95l2.83-.51a1.91,1.91,0,0,1,2.05,1.07h0l1.81,4-.82.37-1.81-4a1,1,0,0,0-1.08-.57l-2.83.51a1.11,1.11,0,0,0-.88,1.08Z"/><path class="cls-14" d="M289,238.3l13.34-1a1.8,1.8,0,0,0,1.59-1.95l-.61-10.17a1.74,1.74,0,0,0-1.95-1.7l-16,2.42a1.85,1.85,0,0,0-1.36,2.49l3.26,8.77A1.69,1.69,0,0,0,289,238.3Z"/><polygon class="cls-9" points="294.15 231.76 294.11 231.75 284.58 229.89 284.62 229.68 294.12 231.54 303.44 227.09 303.53 227.28 294.15 231.76"/><path class="cls-9" d="M294.12,232.59h0a.61.61,0,0,0,.46-.69l-.09-.57a.57.57,0,0,0-.64-.49h0a.6.6,0,0,0-.46.69l.09.57A.57.57,0,0,0,294.12,232.59Z"/><path class="cls-7" d="M289.66,220.26c.21-.43.44-1.15.68-1.84a10.49,10.49,0,0,1,.55-1.44,2.29,2.29,0,0,1,2.11-1c1.45,0,1.61.63,1.61.63a13.5,13.5,0,0,1,1.06,2.76,1.5,1.5,0,0,1,.1.32c.17.84.56,2,.08,2.45s-.85-.35-1-.81a2.1,2.1,0,0,1-.19,1.68c-.4.49-.86-.83-1.07-1.5h0c.14.6.34,1.77-.17,2.08s-1.07-1.41-1.19-1.82h-.05c-.35,2.55-1.29,1.26-1.51-.7-.34.41-1.12,1.14-1.38.95S289.5,220.61,289.66,220.26Z"/><path class="cls-3" d="M275.22,180.36c-.05.18-.18.3-.28.26s-.16-.2-.11-.38.17-.3.28-.26S275.27,180.18,275.22,180.36Z"/><path class="cls-7" d="M155.33,211.88c-.41.72-.94,2.33-1.34,3.06-.18.31-.7,1.41-.44,1.65s1-.46,1.37-.83c.14,2.43,1.34,5.9,1.38.8h0c0,.51.26,3.39.87,3.06s.46-2.35.4-3.2h0c.13.85.48,2.92.91,2.46s.51-2.83.51-2.83.1,2.89.8,2.32c.39-.33.17-2,0-3h0c0-.22-.06-.4-.08-.55a1.41,1.41,0,0,0-.07-.31,13.56,13.56,0,0,0-.83-2.72,1.69,1.69,0,0,0-1.76-1.2A2.71,2.71,0,0,0,155.33,211.88Z"/><path class="cls-14" d="M154.28,212.23c-5-3.55.37-14.55-1.71-22.14a23.28,23.28,0,0,0-1.11-3.4c-.34-.79.57-2.33,1.81-3s4-.2,4.2.2c3.38,6.07,4.47,16,2.79,28.78C160.26,212.71,156.44,213.75,154.28,212.23Z"/><path class="cls-9" d="M146.82,258.3s0,1.83,1.19,2.35,4.49,1,3.25,2.16c-.72.68-4.09.24-5,.24s-1.85.45-2.56-.24,0-4.51,0-4.51a3.6,3.6,0,0,0,1.56.44A2.88,2.88,0,0,0,146.82,258.3Z"/><path class="cls-10" d="M156.75,203s.23,8.27-2.22,24.13c-1.77,11.45-3.85,23-4.88,28.52a4.12,4.12,0,0,1-3.74,3.51l-1,0a3.52,3.52,0,0,1-3.44-3.93L144,217.86l.62-12.32Z"/><path class="cls-9" d="M135.91,258.3s.05,1.83,1.2,2.35,4.49,1,3.24,2.16c-.72.68-4.09.24-5,.24s-1.85.45-2.55-.24,0-4.51,0-4.51a3.6,3.6,0,0,0,1.56.44A2.87,2.87,0,0,0,135.91,258.3Z"/><path class="cls-10" d="M145.85,203s.23,8.27-2.22,24.13c-1.77,11.45-3.86,23-4.89,28.52a4.11,4.11,0,0,1-3.74,3.51l-1,0a3.52,3.52,0,0,1-3.44-3.93l2.49-37.42.61-12.32Z"/><path class="cls-9" d="M132.47,212.07c0,1,5.62,1.39,12.55,1.16S157.49,212,157.47,211s-5.6-1.59-12.53-1.35S132.44,211.07,132.47,212.07Z"/><path class="cls-14" d="M134.16,183.83s1.23-5.23,10.27-5.29c13-.07,11.83,12.83,13,32.43,0,0-12.85-2-25,.85C132.46,211.82,131.33,191.82,134.16,183.83Z"/><path class="cls-14" d="M130.82,183.08l5.91,3.51s12.93,1.27,16.36.66a5.61,5.61,0,0,0,4.38-3.32,18.51,18.51,0,0,0-9.87-5.16,16.83,16.83,0,0,0-5-.16C134.76,179.57,130.82,183.08,130.82,183.08Z"/><path class="cls-10" d="M156.38,211.77s-7.51-2.37-23.06.89l-.12,2.41,22.79.87Z"/><path class="cls-14" d="M129.69,211.82c.55-6.44,5-23.31,5.49-24.23.41-.74-.33-2.38-1.5-3.15s-2.53-1.66-2.86-1.36c-4.64,4.21-8.64,19.63-7.38,28.17Z"/><path class="cls-7" d="M141.49,178.77c.94,1.24,2.62,1.07,3.93.44,1.06-.5.91-.49.76-.67-.35-.46-.65-.57-.67-1.09l0-.68v-.08l0-.89-.06-1.54-.15-4-1.17,4.05-.2.69-.68,2.38C143,178.11,141.5,178.77,141.49,178.77Z"/><path class="cls-9" d="M143.73,175.58a2.61,2.61,0,0,0,1.75,1.19v-.08l0-.89C144.8,175.73,143.73,175.58,143.73,175.58Z"/><path class="cls-6" d="M151.38,202.66s-.38,3.73-2.84,5.75a10.89,10.89,0,0,1-2.63-2.85,6.75,6.75,0,0,1-1.12-2.9,23,23,0,0,1,0-2.59c0-.95.09-2.08.15-3.31.11-2.15.26-4.6.37-6.91.06-1.26.1-2.49.13-3.6a17.82,17.82,0,0,0-.29-4.83l1.18-.39s.51,1.41,1.2,3.55c.26.82.56,1.75.86,2.74.47,1.58,1,3.35,1.44,5.12.25,1,.49,2,.69,2.93a38.93,38.93,0,0,1,.88,5.49A11,11,0,0,1,151.38,202.66Z"/><path class="cls-9" d="M123.44,211.25c0,.94,1.34,1.77,3.08,1.87s3.17-.58,3.21-1.51-1.34-1.77-3.08-1.87S123.47,210.32,123.44,211.25Z"/><path class="cls-9" d="M157.55,211h-.16c0-.14,1.05-14-2.67-22.53l.15-.06C158.6,197,157.56,210.84,157.55,211Z"/><path class="cls-9" d="M132.31,198.53l-.15,0a25,25,0,0,1,3.07-7.49l.13.09A24.74,24.74,0,0,0,132.31,198.53Z"/><path class="cls-9" d="M146.61,167.65a5.7,5.7,0,0,1,.68,2.09c.15,1.25-1.88-1.19-1.88-1.19Z"/><ellipse class="cls-7" cx="144.54" cy="171.65" rx="3.39" ry="4.3" transform="translate(-49.03 58.12) rotate(-19.51)"/><path class="cls-9" d="M141.09,172.14l1.47-.75a1.28,1.28,0,0,0,.65-.85c.14-.65.43-1.06,1.88-1.55a3.4,3.4,0,0,0,2.51-3.31,1.13,1.13,0,0,0-2-.63c-.75.84-.76-.53-1.67-.32-1.71.37-1.58,1.84-2.93,2.3-1.77.61-4.44,3.22-1.87,6Z"/><path class="cls-12" d="M144.85,171.18a.1.1,0,0,0,0-.07.07.07,0,0,0-.09-.05.76.76,0,0,0-.59.73s0,.08.06.08.07,0,.08-.06a1.27,1.27,0,0,1,.49-.61Z"/><path class="cls-12" d="M144.87,172.17c.09.14.24.2.34.13a.32.32,0,0,0,0-.4c-.1-.14-.25-.2-.35-.13A.31.31,0,0,0,144.87,172.17Z"/><path class="cls-12" d="M147,170s0,0,0,0a.07.07,0,0,0-.06-.07.47.47,0,0,0-.59.4.12.12,0,0,0,0,.1s.06,0,.08,0a.7.7,0,0,1,.48-.34S147,170,147,170Z"/><path class="cls-12" d="M146.73,171c.06.16.19.26.3.22a.28.28,0,0,0,.1-.37c0-.17-.18-.27-.3-.22S146.68,170.79,146.73,171Z"/><path class="cls-9" d="M139.09,173s1.86,2.06,3.42,1.67c0,0-1.82-1.41.36-3.52A8.33,8.33,0,0,0,139.09,173Z"/><path class="cls-7" d="M141.65,173.57a.69.69,0,0,0,.86-.51.75.75,0,0,0-.57-.86.68.68,0,0,0-.85.51A.74.74,0,0,0,141.65,173.57Z"/><path class="cls-6" d="M147.07,165.46a.52.52,0,0,1-.52-.4.08.08,0,1,1,.15,0h0a.38.38,0,0,0,.49.27.08.08,0,0,1,.1.06.08.08,0,0,1-.06.09A.47.47,0,0,1,147.07,165.46Z"/><path class="cls-3" d="M145.42,168.25l0,0s1.75-1.36,1.48-2.46c-.08-.31-.2-.5-.36-.56s-.56.12-.83.31l-.13.09,0,0,.12-.09c.29-.19.61-.42.88-.31s.3.26.38.59a2,2,0,0,1-.64,1.68A5.3,5.3,0,0,1,145.42,168.25Z"/><path class="cls-3" d="M140.34,167.7v0a3.34,3.34,0,0,0,2.5-1.93l0,0A3.46,3.46,0,0,1,140.34,167.7Z"/><path class="cls-7" d="M128.54,211.9c.57.58,1.46,2,2,2.59.25.25,1,1.17.81,1.47s-1.1-.16-1.52-.42c.44,2.38.1,6.07-1.15,1.14h0c.08.51.55,3.34-.12,3.2s-1-2.15-1.15-3h0c.08.87.23,3-.29,2.64s-1.16-2.61-1.16-2.61.58,2.83-.23,2.46c-.46-.2-.63-1.86-.73-2.89h0c0-.22,0-.4,0-.55a1.71,1.71,0,0,1,0-.32,14,14,0,0,1,.16-2.86,1.77,1.77,0,0,1,1.42-1.64A2.55,2.55,0,0,1,128.54,211.9Z"/><path class="cls-9" d="M143.2,230.17l-.1,0c0-.12,2.23-11.65,2.7-13.46a3.26,3.26,0,0,1,2.26-2.27l0,.1a3.15,3.15,0,0,0-2.18,2.19C145.43,218.52,143.23,230.05,143.2,230.17Z"/><path class="cls-15" d="M145.39,186.25a17.82,17.82,0,0,0-.29-4.83l1.18-.39s.51,1.41,1.2,3.55C146.78,185.12,146,185.72,145.39,186.25Z"/><path class="cls-15" d="M149.78,192.44c-1.66,1.38-4,3.37-4.89,4.32.11-2.15.26-4.6.37-6.91l3.08-2.53C148.81,188.9,149.32,190.67,149.78,192.44Z"/><path class="cls-15" d="M151.35,200.86c-1.5,1.27-3.88,3.28-5.44,4.7a6.75,6.75,0,0,1-1.12-2.9,23,23,0,0,1,0-2.59l5.73-4.7A38.93,38.93,0,0,1,151.35,200.86Z"/><path class="cls-6" d="M144.45,179.41s1.59-.53,2-.12.11,2.29-.62,2.46S143.73,179.86,144.45,179.41Z"/><path class="cls-16" d="M145.38,179s-2.07-.79-2.47-1.58-2.56,1-2.52,1.58,3.91,3.56,4.16,3.18S145.89,179.49,145.38,179Z"/><path class="cls-16" d="M145.38,179a2.59,2.59,0,0,0,.16-1.28s-.09-.39.22-.37A6.6,6.6,0,0,1,148,179c.15.39.17,2.24-.38,2.38s-1.9-1.85-2.06-2A.62.62,0,0,1,145.38,179Z"/><path class="cls-9" d="M145.83,181.79a1.43,1.43,0,0,1-.88-.46l.06-.06a1.28,1.28,0,0,0,.82.44h0c.42,0,.68-1,.68-1l.08,0c0,.05-.27,1.06-.76,1.07Z"/><path class="cls-3" d="M146.38,173.75c0,.23.12.43.26.43s.27-.2.27-.43-.12-.43-.27-.43S146.38,173.51,146.38,173.75Z"/><path class="cls-8" d="M216,118.76c-3.31-6.56-16.11-14.88-20-14.2-.85.15,4.69-11.44,6.55-10.26,6.45,4.08,16,13.08,18.41,19.63Z"/><path class="cls-9" d="M217.3,114.9c1.58-2,3-1.7,3.6-1s-.13,2.36-1.55,3.63-2.82,1.93-3.38,1.2S216.1,116.4,217.3,114.9Z"/><path class="cls-7" d="M217.53,117.38c0,.81.3,2.43.31,3.25,0,.35.08,1.54.41,1.59s.63-.93.74-1.41c1.25,1.92,3.85,4.14,1.51-.1h0c.27.41,1.79,2.66,2.14,2.06s-.71-2.19-1.15-2.86h0c.51.64,1.76,2.15,1.9,1.54s-.9-2.61-.9-2.61,1.43,2.33,1.74,1.48c.17-.48-.77-1.72-1.38-2.49h0l-.31-.4a1.49,1.49,0,0,0-.21-.22,11.7,11.7,0,0,0-2-1.8,1.53,1.53,0,0,0-2,0A2.89,2.89,0,0,0,217.53,117.38Z"/><path class="cls-9" d="M188.31,164s.73,1.95-.27,3.05-4.31,3.21-2.51,3.84c1,.37,4.4-1.73,5.41-2.19s2.12-.42,2.58-1.49-1.89-4.74-1.89-4.74a4.49,4.49,0,0,1-1.45,1.22A3.31,3.31,0,0,1,188.31,164Z"/><path class="cls-9" d="M217.21,172s.1,2.09-1.17,2.79-5,1.56-3.52,2.79c.88.7,4.69-.13,5.77-.22s2.15.33,2.9-.53-.38-5.14-.38-5.14a4.22,4.22,0,0,1-1.75.65A3.28,3.28,0,0,1,217.21,172Z"/><path class="cls-10" d="M193.22,123.75s-4.27-2.45,2,11.86c4.52,10.33,14.13,28.74,18.93,35.09a4.82,4.82,0,0,0,4.94,2.19l1.1-.26a3.84,3.84,0,0,0,2.94-4.76l-16.31-46.48s-1-1.3-6.7-.65C193.14,121.53,193.22,123.75,193.22,123.75Z"/><path class="cls-10" d="M187.33,124.71s-8.55,6.83-10.77,15.72c-2.51,10.11,8.51,23.58,11.14,24.62,1.72.68,3.08,0,5-3.63,1.16-2.18-4.5-14.57-2.73-18.83,2.15-5.16,12.65-9.43,12.65-9.43l-1-13.27A86.93,86.93,0,0,0,187.33,124.71Z"/><path class="cls-8" d="M205.67,97.85s-1.51-5.48-11.1-5.1c-7.38.29-11.52,1.34-12.41,6.61-.32,1.87-1.08,8.81,2.88,27.28,0,0,13,6.09,25.19-.56,0,0-1.86-9.86-4-25A14.39,14.39,0,0,0,205.67,97.85Z"/><path class="cls-6" d="M192.4,95.11c.46,1.8,3.9,14.76,22.8,9.84a5.62,5.62,0,0,1,3.53.22l3.12,1.23a.68.68,0,0,1,.27,1l-1.87,2.51a8.4,8.4,0,0,1-4.75,3.18c-3.92.95-10.93,1.89-16.84-1.33-7-3.82-7.94-13-8-16.43a.62.62,0,0,1,1-.54h0C191.73,94.91,192.37,95,192.4,95.11Z"/><path class="cls-7" d="M194.27,91.41l-.51-2.61-.15-.77-.88-4.47-.53,4.31-.33,2.59-.1.82c-.07.56-.39.64-.82,1.09-.17.18-1.27,1.27-.19,1.93,1.36.81,4.08,0,5.2-1.18C196,93.12,194.44,92.26,194.27,91.41Z"/><path class="cls-9" d="M193.9,89.5a3.38,3.38,0,0,1-2,1L192,89.4Z"/><path class="cls-11" d="M189.65,81.6a6,6,0,0,0-.2,2.38c.14,1.34,1.66-1.78,1.66-1.78Z"/><path class="cls-7" d="M189.26,84.34c.53-2.52,2.54-4.18,4.48-3.71s3.09,2.9,2.56,5.43-2.53,4.18-4.48,3.71S188.73,86.87,189.26,84.34Z"/><path class="cls-9" d="M196.51,84.73l-1.72-.37a1.28,1.28,0,0,1-.89-.7c-.31-.64-.71-1-2.34-1.08a3.51,3.51,0,0,1-3.43-2.76,1.24,1.24,0,0,1,2-1.23c1,.66.66-.76,1.67-.81,1.88-.09,2.09,1.48,3.61,1.58,2,.14,5.43,2.12,3.41,5.73Z"/><path class="cls-12" d="M192.57,85l-.06,0s0-.09,0-.11a.73.73,0,0,1,1-.07.08.08,0,0,1,0,.11.09.09,0,0,1-.1,0,1.13,1.13,0,0,0-.8,0Z"/><path class="cls-12" d="M189.93,84.36s0,0,0-.07a.16.16,0,0,1,.09-.12s.59-.33.67.37a.23.23,0,0,1-.07.15s-.07,0-.08,0a.55.55,0,0,0-.56-.32A0,0,0,0,1,189.93,84.36Z"/><path class="cls-12" d="M190.53,85.36c0,.18-.09.34-.22.34s-.23-.14-.24-.33.1-.34.22-.35S190.53,85.17,190.53,85.36Z"/><path class="cls-11" d="M198.8,85.09s-1.44,2.67-3.16,2.7c0,0,1.56-2-1.23-3.57A8.63,8.63,0,0,1,198.8,85.09Z"/><path class="cls-7" d="M196.27,86.39a.72.72,0,0,1-1-.29.83.83,0,0,1,.38-1.06.73.73,0,0,1,1,.29A.85.85,0,0,1,196.27,86.39Z"/><path class="cls-9" d="M190.43,78.43h-.11v-.1a.45.45,0,0,0,.55-.36l.1,0A.56.56,0,0,1,190.43,78.43Z"/><path class="cls-3" d="M191,81.9a7.72,7.72,0,0,1-1.08-.62,2.1,2.1,0,0,1-1.08-1.58.84.84,0,0,1,.26-.73c.25-.18.64,0,1,.09l.15,0,0,0-.15-.06c-.33-.12-.71-.25-.94-.09a.79.79,0,0,0-.24.69c0,1.22,2.11,2.14,2.13,2.15Z"/><path class="cls-3" d="M196,79.89a3.83,3.83,0,0,1-2.17-.63,2.67,2.67,0,0,1-.74-.71l0,0a3.47,3.47,0,0,0,3.09,1.31v0Z"/><path class="cls-3" d="M190.19,87.4a1.21,1.21,0,0,0,2.31.25A5,5,0,0,1,190.19,87.4Z"/><path class="cls-9" d="M193.47,85.78h0a1.59,1.59,0,0,0-1-.11.07.07,0,1,1,0-.13,1.6,1.6,0,0,1,1.12.13.07.07,0,0,1,0,.09A.05.05,0,0,1,193.47,85.78Z"/><path class="cls-6" d="M192.88,93.62s-1.7-.48-2.13,0,0,2.43.75,2.57S193.67,94.07,192.88,93.62Z"/><path class="cls-9" d="M191.5,96.21c-.51,0-.83-1-.84-1.09l.08,0s.31,1,.76,1h0a1.4,1.4,0,0,0,.87-.5l.06.05a1.41,1.41,0,0,1-.92.53Z"/><path class="cls-9" d="M192.05,122.87a.52.52,0,0,0,.75.17.62.62,0,0,0,.16-.81c-.17-.27-.47-.42-.72-.24A.63.63,0,0,0,192.05,122.87Z"/><path class="cls-9" d="M190.93,114.28a.54.54,0,0,0,.71.31.6.6,0,0,0,.29-.77c-.12-.29-.39-.5-.66-.37A.62.62,0,0,0,190.93,114.28Z"/><path class="cls-9" d="M189.84,105.59a.54.54,0,0,0,.71.31.6.6,0,0,0,.29-.77c-.12-.3-.39-.5-.66-.37A.62.62,0,0,0,189.84,105.59Z"/><path class="cls-8" d="M190.19,92.73c-5,0-9.45,3-10.82,1.68-.32-.32,1.38-11,1.38-11l-4.14.14s-8,13.77-3.87,18.31c5.08,5.56,12.54,2.17,12.54,2.17S192.76,92.73,190.19,92.73Z"/><path class="cls-9" d="M188.31,86.63l-10.17-2a1,1,0,0,1-.76-1.19l.2-1.18a1,1,0,0,1,1.1-.83l10.17,2a1,1,0,0,1,.77,1.2l-.21,1.18A1,1,0,0,1,188.31,86.63Z"/><path class="cls-10" d="M181.81,86.51,172,84.58A1.33,1.33,0,0,1,171,83l.44-2.64a1.26,1.26,0,0,1,1.45-1.08l9.81,1.93a1.34,1.34,0,0,1,1,1.56l-.45,2.64A1.27,1.27,0,0,1,181.81,86.51Z"/><path class="cls-6" d="M173.69,85.67l-15.56-3.06a1.1,1.1,0,0,1-.82-1.28l.78-4.59a1,1,0,0,1,1.19-.88l15.56,3.06a1.1,1.1,0,0,1,.82,1.28l-.78,4.59A1,1,0,0,1,173.69,85.67Z"/><path class="cls-9" d="M157.18,83l-.77-.15a.85.85,0,0,1-.63-1l1.06-6.24a.78.78,0,0,1,.91-.67l.77.15a.83.83,0,0,1,.63,1l-1.06,6.24A.79.79,0,0,1,157.18,83Z"/><path class="cls-7" d="M178.78,79.41a1,1,0,0,0-1.46.54c-.53,1.31,0,3.49.33,2.66A8,8,0,0,0,178.1,81s-.42,2.63.18,2.53,1-2.24,1-2.24-.19,2.51.35,2.21.81-1.78.81-1.78-.27,2,.35,1.67.53-1.87.62-2.52-.24-.87-.8-.92c0,0-.52-.4-.89-.33-.15,0-.26-.14-.36-.17A4,4,0,0,0,178.78,79.41Z"/><path class="cls-9" d="M195.85,136.82a.08.08,0,0,1-.08,0,5.86,5.86,0,0,0-4.38-3.65.09.09,0,0,1-.08-.1.08.08,0,0,1,.1-.08,6.06,6.06,0,0,1,4.52,3.76.1.1,0,0,1,0,.12Z"/><path class="cls-9" d="M181.91,105.05h0a.1.1,0,0,1-.09-.1c0-3.46.24-5.57.25-5.6a.09.09,0,0,1,.1-.08.1.1,0,0,1,.08.1S182,101.5,182,105A.09.09,0,0,1,181.91,105.05Z"/><path class="cls-10" d="M191.87,93.2s2.17-.94,2.56-1.79,2.75,1,2.74,1.55-4.34,4-4.63,3.61S191.36,93.77,191.87,93.2Z"/><path class="cls-10" d="M191.87,93.2a2.74,2.74,0,0,1-.22-1.35s.09-.42-.25-.38a7.15,7.15,0,0,0-2.24,1.93c-.15.42-.1,2.38.5,2.5s1.93-2.05,2.09-2.27A.59.59,0,0,0,191.87,93.2Z"/><path class="cls-7" d="M119.4,177.25c.68-1-2.83-4.47-2.83-4.47-.35-.18-4.68,6.1-11,5.19-2.23-.32-5.81-3.77-6.12-4.32,0-.07-4.41,2.62-4.41,2.62.56,1,1,4.82,3.63,6.65C104.19,186.7,112.49,185.65,119.4,177.25Z"/><path class="cls-9" d="M95.75,248.9s.09,1.75,1.21,2.22,4.33.82,3.16,2c-.67.67-3.92.35-4.83.37s-1.76.48-2.46-.16-.11-4.33-.11-4.33a3.45,3.45,0,0,0,1.51.38A2.82,2.82,0,0,0,95.75,248.9Z"/><path class="cls-10" d="M103.81,200.18s.57,3.29-1.4,18.58c-1.42,11.05-3.15,22.18-4,27.52a4,4,0,0,1-3.51,3.47l-1,.07a3.36,3.36,0,0,1-3.4-3.67l1.49-36,.29-11.85Z"/><path class="cls-9" d="M85.28,249.2s.09,1.76,1.2,2.22,4.34.82,3.17,2c-.67.66-3.92.34-4.83.37s-1.76.48-2.46-.16-.11-4.33-.11-4.33a3.45,3.45,0,0,0,1.51.38A2.77,2.77,0,0,0,85.28,249.2Z"/><path class="cls-10" d="M93.49,195.84s.42,7.93-1.55,23.23c-1.43,11-3.15,22.18-4,27.52a4,4,0,0,1-3.52,3.47l-.94.06a3.35,3.35,0,0,1-3.4-3.67l1.49-36,.29-11.84Z"/><path class="cls-9" d="M80.86,204.91c0,1,5.88-1.13,12.52-1.55s11.09-2.83,11-3.79-4.91-.59-11.56-.18S80.81,204,80.86,204.91Z"/><path class="cls-15" d="M78.2,178.05s.36-5.17,8.91-6.83c12.32-2.39,13.16,10,17.31,28.35,0,0-12.47.41-23.55,5.23C80.87,204.8,76.75,186.11,78.2,178.05Z"/><path class="cls-15" d="M74.93,177.93l6.13,2.28s12.43-1.11,15.58-2.3a5.58,5.58,0,0,0,3.63-3.92,17.34,17.34,0,0,0-10.13-3.12,15.25,15.25,0,0,0-1.76.11,16.57,16.57,0,0,0-3,.62C78.12,173.91,74.93,177.93,74.93,177.93Z"/><path class="cls-7" d="M85.75,170.31,86,168l.08-.69.48-4,.77,3.79.45,2.28L88,170c.1.49.4.54.8.9.17.15,1.22,1,.3,1.7-1.15.83-3.62.37-4.7-.64C84.37,172,85.65,171.08,85.75,170.31Z"/><path class="cls-10" d="M103.81,200.18s-5.54-.3-22.11,5l-.07,2.61,21.91.2Z"/><path class="cls-9" d="M74.84,178.09c-.36.81.57,2.11,2.07,2.89s3,.77,3.37,0-.57-2.11-2.08-2.89S75.19,177.28,74.84,178.09Z"/><path class="cls-7" d="M78,207.3c-.47-6.19-.71-15.13.87-22.54a23.61,23.61,0,0,1,.87-3.33c.28-.78-.67-2.19-1.9-2.72s-2.76-.07-3,.32a20,20,0,0,0-1.06,3.77c-1.52,6.62-1.73,14.85-.68,25.21Z"/><path class="cls-9" d="M88.39,160.72a5.37,5.37,0,0,1,.67,2c.16,1.19-1.81-1.13-1.81-1.13Z"/><ellipse class="cls-7" cx="86.44" cy="164.59" rx="3.26" ry="4.13" transform="matrix(0.94, -0.34, 0.34, 0.94, -51.08, 39.49)"/><path class="cls-9" d="M83.13,165.09l1.41-.74a1.17,1.17,0,0,0,.61-.82c.13-.63.41-1,1.79-1.51a3.27,3.27,0,0,0,2.38-3.21,1.08,1.08,0,0,0-2-.58c-.71.81-.73-.49-1.6-.29-1.64.38-1.5,1.79-2.79,2.25-1.69.6-4.23,3.15-1.73,5.76Z"/><path class="cls-12" d="M86.54,164.36a0,0,0,0,0,0-.06.05.05,0,0,0-.07-.05.73.73,0,0,0-.57.71A.09.09,0,0,0,86,165S86,165,86,165a1.24,1.24,0,0,1,.47-.59Z"/><path class="cls-12" d="M86.56,165.31c.09.14.24.19.33.12a.27.27,0,0,0,0-.37c-.09-.14-.24-.2-.33-.13A.3.3,0,0,0,86.56,165.31Z"/><path class="cls-12" d="M88.75,163.27s0,0,0,0a.09.09,0,0,0-.06-.08.44.44,0,0,0-.6.32.1.1,0,0,0,0,.09.06.06,0,0,0,.08,0,.64.64,0,0,1,.49-.27Z"/><path class="cls-12" d="M88.41,164.17c0,.16.16.27.27.25s.17-.18.13-.35-.15-.27-.26-.24S88.38,164,88.41,164.17Z"/><path class="cls-9" d="M81.23,166s1.8,2,3.29,1.57c0,0-1.76-1.34.31-3.39A8,8,0,0,0,81.23,166Z"/><path class="cls-7" d="M83.68,166.46a.66.66,0,0,0,.82-.5.71.71,0,0,0-.55-.82.65.65,0,0,0-.81.5A.71.71,0,0,0,83.68,166.46Z"/><path class="cls-9" d="M84.83,164.13s.47,2.05,1,2.28,3-.58,4-1.51h0a2.85,2.85,0,0,1-1.09,3.37,3.52,3.52,0,0,1-1.18.45h0a2.38,2.38,0,0,1-2.36-.56,8.66,8.66,0,0,1-.4-1.82s-.18-.93-.82-1.2A2.7,2.7,0,0,1,84.83,164.13Z"/><path class="cls-9" d="M86.89,158.19a.48.48,0,0,1-.42-.28l.09,0a.38.38,0,0,0,.54.17l0,.09A.59.59,0,0,1,86.89,158.19Z"/><path class="cls-3" d="M87.26,161.31l0,0a5.91,5.91,0,0,0,.8-.79,2,2,0,0,0,.59-1.58c-.08-.3-.19-.48-.35-.53s-.53.12-.8.3l-.12.09,0,0,.12-.08c.27-.2.58-.41.84-.32s.29.25.37.57C88.94,160,87.32,161.26,87.26,161.31Z"/><path class="cls-3" d="M82.37,160.84v-.05a3.24,3.24,0,0,0,2.38-1.88h.05A3.31,3.31,0,0,1,82.37,160.84Z"/><path class="cls-3" d="M89.3,165.94a5.65,5.65,0,0,1-1.78.65.87.87,0,0,0,1.27.44C89.32,166.77,89.3,165.94,89.3,165.94Z"/><path class="cls-7" d="M75.73,205.27h0a.92.92,0,0,0,.11,1.22L78.73,209c.34.3,1.86,1.16,2.14.8h0c.28-.37-.66-1.62-1-2-.69-.81-1.76-2.7-2.47-3.49C77.13,204,76,204.91,75.73,205.27Z"/><path class="cls-7" d="M72.91,205.24a18,18,0,0,0-.38,4.8c0,.88,5.42,1,5.64,0s-.71-4-.71-4Z"/><path class="cls-7" d="M76.91,207.33s1.34-1,1.82.81c.76,2.86.08,9.66-1.4,2.3,0-.14.62,4.49-.35,4.22s-1.36-4.4-1.36-4.4.31,4.42-.52,3.85-1.35-3.44-1.35-3.44.58,3.68-.45,3.16c-.71-.36-.75-3.43-.81-4.5S73,208,73.92,208a2.46,2.46,0,0,1,1.5-.39c.23.06.44-.18.6-.21A5.36,5.36,0,0,1,76.91,207.33Z"/><path class="cls-9" d="M91.62,222.18l-.15,0c0-.07.82-6.57,1.43-8.9s3.44-4.39,3.47-4.41l.08.12s-2.81,2-3.41,4.33S91.63,222.11,91.62,222.18Z"/><path class="cls-7" d="M116.66,175.35h0a.81.81,0,0,0,.88-.76l.39-4c0-.47-.12-2.31-.55-2.36h0c-.44-.05-.9,1.47-1,1.93-.24,1.07-1.13,3.07-1.36,4.14C114.91,174.78,116.22,175.3,116.66,175.35Z"/><path class="cls-7" d="M118.17,177.92a15.39,15.39,0,0,0,4-2.27c.66-.51-2.21-5.42-3.07-5.1s-2.76,2.83-2.76,2.83Z"/><path class="cls-7" d="M117.61,173.17a1.25,1.25,0,0,1-.36-2.08c1.81-2.25,7.48-5.35,2.56,0-.1.11,3.16-3,3.47-2s-2.68,3.63-2.68,3.63,3.27-2.68,3.28-1.62-1.94,3.09-1.94,3.09,2.55-2.54,2.7-1.31c.11.83-2.26,2.54-3.06,3.17s-1.35.28-1.84-.55c0,0-.93-.51-1.12-1.14-.07-.24-.37-.29-.49-.42A7.58,7.58,0,0,1,117.61,173.17Z"/><path class="cls-9" d="M32.31,260.09s4.33-24,5-24.7,1.71-.08,1.35,1.25-5.41,23-5.62,23.45S32.19,260.76,32.31,260.09Z"/><path class="cls-17" d="M60,228.67c0-4.28-9.79-17.14-14.91-18.74-5.8-1.82-13.23-5.12-15.41.84s5.13,24.32,5.13,24.32a2.46,2.46,0,0,0,1.88,1.82c1.48.18,19.73.82,19.76,0C56.51,236.38,62.62,229.55,60,228.67Z"/><path class="cls-7" d="M57.29,200s6.81,11.44,15.89,14.13L71.55,218a27,27,0,0,1-18.11-13.68Z"/><path class="cls-9" d="M64.33,257.27s0,1.85,1.09,2.44,4.47,1.25,3.16,2.37c-.76.64-4.14,0-5.1-.06s-1.88.34-2.56-.39.23-4.55.23-4.55a3.62,3.62,0,0,0,1.55.53A2.88,2.88,0,0,0,64.33,257.27Z"/><path class="cls-9" d="M76.15,257.25s-.05,1.85,1.08,2.44,4.48,1.26,3.16,2.38c-.76.64-4.13,0-5.09-.06s-1.89.34-2.57-.39.23-4.55.23-4.55a3.68,3.68,0,0,0,1.55.53A2.84,2.84,0,0,0,76.15,257.25Z"/><path class="cls-15" d="M77.39,254.2c-.85-12.13-1-20.31-4.61-25.57-3.9-5.75-14.36-9.82-18.39-10.07-6.58-.42-9.68.64-9.68.64-4.93,11.05,2.8,12.51,8.52,12.81l.57,0c3.46.23,9.61,1.18,11.94,4.88,1.85,2.94,3.13,7.06,3.67,17.68A3.6,3.6,0,0,0,73,258.17S77.7,258.56,77.39,254.2Z"/><path class="cls-15" d="M68.06,254.82c.11-12.16.46-18.37-2.93-23.76a19.66,19.66,0,0,0-9.73-7.76,35,35,0,0,0-10.68-2.2,50.51,50.51,0,0,1-9.54-1.27C29.86,234,49.33,231,54.4,237c2.21,2.62,4.94,7.62,5.48,18.24a3.61,3.61,0,0,0,3.59,3.56S68,259.27,68.06,254.82Z"/><path class="cls-13" d="M68,242.88c0-.08-.34-7.29-1.47-9.81-1.42-3.19-5.54-6.52-9.8-7.91l0-.08c4.28,1.41,8.42,4.75,9.85,8,1.13,2.53,1.46,9.76,1.46,9.83Z"/><path class="cls-6" d="M39.85,197.37a8.14,8.14,0,0,1,9.25-3.57c6.44,1.58,9.07,8.67,9.53,25.7,0,0-6-.24-21.65,5.36-1.86.67-4.59.14-3.63-3.27C35.12,215.26,36.84,202.63,39.85,197.37Z"/><path class="cls-6" d="M34.15,198.78l5.24,1.43s11.6,3.7,14.85,3.73a5.25,5.25,0,0,0,4.59-2.53,17.65,17.65,0,0,0-8.11-7,16.24,16.24,0,0,0-1.62-.56,11.13,11.13,0,0,0-2.89-.52C35.26,193.14,34.15,198.78,34.15,198.78Z"/><path class="cls-9" d="M34.15,198.78c0,.58,1.6,1.05,3.54,1.05s3.5-.48,3.48-1.07-1.59-1-3.53-1S34.14,198.19,34.15,198.78Z"/><path class="cls-7" d="M43.66,193.36a1.91,1.91,0,0,0,1.42-1.4l.68-2.28L46,189l1.17-3.89.08,3.9,0,2.35V192c0,.54,0,1.24.57,1.44,0,0,.68,1.25-.12,1.6C46.45,195.62,43.66,193.36,43.66,193.36Z"/><path class="cls-9" d="M42,185.52a4.68,4.68,0,0,1,.28,1.94c0,2,2.15,2.19,2.52,1.51,0-.08-.84-3.2-.84-3.2l-.73-.22Z"/><path class="cls-9" d="M45.75,189.61s0,0,0,.07a2.39,2.39,0,0,0,1.49,1.7h0l0-2.35A1.74,1.74,0,0,0,46,189,.57.57,0,0,0,45.75,189.61Z"/><ellipse class="cls-7" cx="46.36" cy="185.53" rx="3.41" ry="4.5" transform="translate(-35.61 12.75) rotate(-11.35)"/><path class="cls-9" d="M46.81,181.81c-.06.16,1,2.25-2.69,3.92s-2.68-4,.13-5c4.07-1.38,5.42,1.42,5.3,2.6S46.81,181.81,46.81,181.81Z"/><path class="cls-9" d="M41,180.62s1.65.59.82,1.85-3.67,2.54-2.46,3.9,2.5,3.51,1.13,4.23-2.31.87-2.58,2.29-3.1,1.42-3.26-.12-2.74-2.17-2.12-3.81,2.67-3.52,2.81-5.47S39.69,180.18,41,180.62Z"/><path class="cls-9" d="M44.36,184.89s-1.12,2.25-.1,3.92c0,0-1.19-.81-1.31-1.2a15.77,15.77,0,0,1-.25-1.92Z"/><path class="cls-7" d="M43.69,187a.8.8,0,0,0,1.18-.26,1,1,0,0,0-.51-1.24.81.81,0,0,0-1.19.26A1,1,0,0,0,43.69,187Z"/><path class="cls-3" d="M35.7,194l-.07-.09a1,1,0,0,0,.47-.7c0-.36-.27-.69-.59-1a2.12,2.12,0,0,1-.68-1.11c-.06-.53.49-.81,1-1.08s.83-.42.93-.73a.64.64,0,0,0-.08-.49c-.12-.23-.25-.43-.37-.62-.57-.87-1-1.55-.06-3.69,1.21-2.71,2.65-3.25,4-3.43.16,0,.69.07.77.36s-.32.63-1.19,1a4,4,0,0,0-1.7,2.81c-.15,1,.63,1.83,1.31,2.55s1.19,1.23.68,1.76a5.09,5.09,0,0,1-.93.69A2.18,2.18,0,0,0,38,192.88l-.11,0a2.25,2.25,0,0,1,1.32-2.75,5.39,5.39,0,0,0,.91-.68c.43-.45-.06-1-.68-1.6s-1.5-1.56-1.35-2.64a4.07,4.07,0,0,1,1.77-2.9c1.1-.49,1.15-.78,1.12-.88s-.48-.29-.64-.27c-1.34.17-2.75.7-3.93,3.36-.93,2.07-.5,2.74,0,3.58.12.19.25.39.37.62a.73.73,0,0,1,.09.58c-.11.36-.56.59-1,.8s-1,.52-1,1a2.19,2.19,0,0,0,.65,1c.34.37.66.72.63,1.13A1.16,1.16,0,0,1,35.7,194Z"/><path class="cls-3" d="M43.75,184.4l0-.13a3,3,0,0,0,1.81-1.9l.13,0A3.09,3.09,0,0,1,43.75,184.4Z"/><path class="cls-10" d="M49.52,187.53A1.61,1.61,0,0,1,48,185.88a2,2,0,0,1,.38-1.39,1.25,1.25,0,0,1,.86-.5,1.61,1.61,0,0,1,1.54,1.65,2,2,0,0,1-.38,1.4,1.31,1.31,0,0,1-.65.45A.78.78,0,0,1,49.52,187.53Zm-1.1-3a2,2,0,0,0-.36,1.34,1.54,1.54,0,0,0,1.45,1.57,1.2,1.2,0,0,0,.81-.47,1.93,1.93,0,0,0,.36-1.33c-.08-.93-.73-1.64-1.45-1.57a.65.65,0,0,0-.2,0A1.19,1.19,0,0,0,48.42,184.54Z"/><path class="cls-10" d="M46.22,188a1.61,1.61,0,0,1-1.53-1.65h0a2,2,0,0,1,.38-1.4,1.22,1.22,0,0,1,.86-.49,1.61,1.61,0,0,1,1.53,1.64,2,2,0,0,1-.38,1.4,1.24,1.24,0,0,1-.64.46Zm-1.09-3a1.93,1.93,0,0,0-.36,1.33h0c.08.93.73,1.64,1.45,1.57a1.17,1.17,0,0,0,.8-.46,1.91,1.91,0,0,0,.36-1.34,1.52,1.52,0,0,0-1.45-1.57l-.2,0A1.2,1.2,0,0,0,45.13,185Z"/><path class="cls-10" d="M48.41,185.93l0,0s0,0,0-.05a1.62,1.62,0,0,0-1.23.13,0,0,0,0,0,0,.08,1.59,1.59,0,0,1,1.17-.13Z"/><path class="cls-18" d="M48.89,187.82a7,7,0,0,1-2.34.26A1.15,1.15,0,0,0,48,189C48.71,188.86,48.89,187.82,48.89,187.82Z"/><path class="cls-3" d="M48.89,187.82a1.5,1.5,0,0,1-.84.5,2.51,2.51,0,0,1-1.5-.24A10.6,10.6,0,0,0,48.89,187.82Z"/><path class="cls-12" d="M46.69,185.48a.07.07,0,0,0,0-.06.08.08,0,0,0-.07-.09.8.8,0,0,0-.91.51.1.1,0,0,0,0,.12s.07,0,.1,0a1.3,1.3,0,0,1,.75-.43Z"/><path class="cls-12" d="M46.33,186.54c0,.19.18.32.31.29a.34.34,0,0,0,.16-.41c0-.2-.19-.33-.32-.29S46.28,186.34,46.33,186.54Z"/><path class="cls-12" d="M49.46,185.11a.07.07,0,0,0,.06,0,.09.09,0,0,0,0-.11.81.81,0,0,0-1,.1.11.11,0,0,0,0,.12s.07,0,.11,0a1.31,1.31,0,0,1,.85-.09S49.44,185.12,49.46,185.11Z"/><path class="cls-12" d="M48.75,185.94c0,.2,0,.37.19.4s.26-.12.29-.32-.06-.37-.19-.39S48.78,185.74,48.75,185.94Z"/><path class="cls-9" d="M58.37,263.13l-.21,0c-.17,0-.29-.31-.28-.65l1.65-43.79L62.67,217l-3.81,45.25C58.84,262.76,58.62,263.15,58.37,263.13Z"/><path class="cls-9" d="M106.1,263.13l.22,0c.16,0,.28-.31.27-.65l-1.65-43.79L101.81,217l3.8,45.25C105.64,262.76,105.85,263.15,106.1,263.13Z"/><ellipse class="cls-17" cx="80.95" cy="220.73" rx="28.5" ry="3.97"/><rect class="cls-17" x="52.46" y="218.9" width="56.99" height="1.83"/><ellipse class="cls-1" cx="80.95" cy="218.9" rx="28.5" ry="3.97"/><path class="cls-9" d="M101.36,221.78a.1.1,0,0,1-.1-.09.1.1,0,0,1,.08-.12A37.41,37.41,0,0,0,107,220.4a.1.1,0,1,1,.06.2,36.71,36.71,0,0,1-5.7,1.17Z"/><path class="cls-9" d="M57.29,221.22h0A21.74,21.74,0,0,1,53.39,220a.1.1,0,1,1,.1-.18A22.51,22.51,0,0,0,57.31,221a.1.1,0,0,1,.08.12A.11.11,0,0,1,57.29,221.22Z"/><path class="cls-7" d="M55.92,214.75s3.42-1.39,4.55-.88,2.23,2.06,1.47,1.91a7.83,7.83,0,0,1-1.69-.63s1.94,1.13,1.49,1.5-2.11-.63-2.11-.63,2.2,1.55,1.68,1.75-2.19-1-2.19-1,2,1.53,1.38,1.75-1.64-1.27-2.08-.89-1.54,2-2.65.83Z"/><path class="cls-7" d="M41.87,214.94c3.88,3.66,7.69,4.37,13.9,3.54l.15-3.73c-4.52.6-7.68-2-10.28-4.45-3.7-3.49-4.79-8.89-5.1-11.34a.62.62,0,0,0-.38-.51,7.34,7.34,0,0,0-4.91.09.54.54,0,0,0-.36.56A23.76,23.76,0,0,0,41.87,214.94Z"/><g class="cls-19"><path class="cls-20" d="M42.63,213.62h-.07a1.5,1.5,0,0,1-1-.58h0a1.33,1.33,0,0,1-.1-1.72.75.75,0,0,1,.6-.19,1.38,1.38,0,0,1,1,.58,1.31,1.31,0,0,1,.11,1.71A.79.79,0,0,1,42.63,213.62ZM42,211.34a.56.56,0,0,0-.38.14,1.1,1.1,0,0,0,.13,1.42h0a1.24,1.24,0,0,0,.81.5.61.61,0,0,0,.44-.14,1.11,1.11,0,0,0-.13-1.42,1.24,1.24,0,0,0-.82-.49Z"/></g><path class="cls-9" d="M62.56,219.14H74.2a.56.56,0,0,0,.53-.42L77.15,211a.6.6,0,0,0-.54-.79H65.43a1.21,1.21,0,0,0-1.13.86L62,218.34A.6.6,0,0,0,62.56,219.14Z"/><path class="cls-9" d="M63.3,219.14H74.93a.56.56,0,0,0,.53-.42L77.88,211a.6.6,0,0,0-.54-.79H66.16A1.21,1.21,0,0,0,65,211l-2.27,7.32A.6.6,0,0,0,63.3,219.14Z"/><path class="cls-21" d="M71.44,214.39c0-.29-.31-.41-.59-.41a.82.82,0,0,0-.72.74c0,.44.33.5.6.5A1,1,0,0,0,71.44,214.39Z"/><path class="cls-9" d="M59.07,218H74.93v1.1H58.71a.38.38,0,0,1-.37-.37h0A.73.73,0,0,1,59.07,218Z"/><path class="cls-22" d="M64.12,214.09l-.07,0A22.17,22.17,0,0,1,65,211a1.67,1.67,0,0,1,.86-.89l0,.07a1.66,1.66,0,0,0-.82.85A23.79,23.79,0,0,0,64.12,214.09Z"/><path class="cls-22" d="M62.4,218.08V218c.38,0,.48-.17.48-.17l.9-2.91.08,0L63,217.86S62.84,218.08,62.4,218.08Z"/><g class="cls-23"><path class="cls-2" d="M256.58,75.2a10.88,10.88,0,0,0-10.89-5.59c-7.8.8-6.88,7.2-10.59,6.6s-8.92,0-10,4-6.13,1.8-6.32,5.2,5.77,5.81,12.64,2.8,10.22,2.34,19.88,1.37,10.87-2.17,16.58-1.57,5.59-3.61,3-6.41S257.69,79.06,256.58,75.2Z"/></g><path class="cls-2" d="M46.85,111.86a6.6,6.6,0,0,1,6.61-3.4c4.74.49,4.18,4.38,6.43,4s5.42,0,6.1,2.43,3.72,1.1,3.83,3.16-3.49,3.52-7.67,1.7-6.2,1.42-12.07.83-6.6-1.31-10.07-1-3.39-2.2-1.81-3.9S46.17,114.2,46.85,111.86Z"/><path class="cls-2" d="M282.89,98.13a6.38,6.38,0,0,0-6.39-3.28c-4.59.47-4,4.23-6.22,3.88s-5.24,0-5.89,2.35-3.6,1.06-3.71,3,3.38,3.41,7.42,1.65,6,1.36,11.67.8,6.37-1.27,9.73-.92,3.28-2.12,1.75-3.77S283.54,100.4,282.89,98.13Z"/><path class="cls-2" d="M128.57,73.91a7,7,0,0,0-7-3.58c-5,.51-4.41,4.62-6.8,4.23s-5.72,0-6.43,2.57-3.93,1.15-4,3.33,3.69,3.73,8.1,1.8,6.55,1.5,12.75.88,7-1.39,10.63-1,3.58-2.32,1.92-4.11S129.28,76.39,128.57,73.91Z"/></svg>