<svg xmlns="http://www.w3.org/2000/svg" xmlns:xlink="http://www.w3.org/1999/xlink" width="2800" zoomAndPan="magnify" viewBox="0 0 2100 1499.999933" height="2000" preserveAspectRatio="xMidYMid meet" version="1.0"><path fill="#c7ede6" d="M 1769.609375 867.464844 C 1792.015625 824.925781 1804.84375 776.5625 1804.84375 725.140625 C 1804.84375 594.441406 1722.746094 483.1875 1607.425781 439.34375 C 1607.425781 439.207031 1607.445312 439.066406 1607.445312 438.910156 C 1607.445312 209.964844 1421.851562 24.371094 1192.90625 24.371094 C 999.769531 24.371094 837.960938 156.648438 791.925781 335.414062 C 762.789062 325.839844 731.738281 320.46875 699.40625 320.46875 C 547.566406 320.46875 422.589844 434.824219 405.476562 582.0625 C 302.75 603.796875 225.644531 694.917969 225.644531 804.097656 C 225.644531 929.46875 327.285156 1031.109375 452.65625 1031.109375 C 456.148438 1031.109375 459.605469 1030.871094 463.039062 1030.675781 C 462.960938 1034.128906 462.527344 1037.503906 462.527344 1040.980469 C 462.527344 1264.476562 643.699219 1445.648438 867.195312 1445.648438 C 994.261719 1445.648438 1107.53125 1386.980469 1181.734375 1295.347656 C 1224.726562 1339.269531 1284.5 1366.691406 1350.824219 1366.691406 C 1442.617188 1366.691406 1522.050781 1314.378906 1561.371094 1238.023438 C 1582.140625 1244.636719 1604.226562 1248.25 1627.1875 1248.25 C 1747.105469 1248.25 1844.324219 1151.03125 1844.324219 1031.109375 C 1844.324219 965.75 1815.308594 907.28125 1769.609375 867.464844 Z M 1769.609375 867.464844 " fill-opacity="1" fill-rule="nonzero"/><path fill="#ffffff" d="M 352.082031 754.75 L 156.554688 754.75 C 151.109375 754.75 146.6875 750.328125 146.6875 744.878906 C 146.6875 739.429688 151.109375 735.007812 156.554688 735.007812 L 352.082031 735.007812 C 357.527344 735.007812 361.949219 739.429688 361.949219 744.878906 C 361.949219 750.328125 357.546875 754.75 352.082031 754.75 Z M 352.082031 754.75 " fill-opacity="1" fill-rule="nonzero"/><path fill="#ffffff" d="M 413.175781 754.75 L 393.4375 754.75 C 387.988281 754.75 383.566406 750.328125 383.566406 744.878906 C 383.566406 739.429688 387.988281 735.007812 393.4375 735.007812 L 413.175781 735.007812 C 418.625 735.007812 423.046875 739.429688 423.046875 744.878906 C 423.046875 750.328125 418.644531 754.75 413.175781 754.75 Z M 413.175781 754.75 " fill-opacity="1" fill-rule="nonzero"/><path fill="#ffffff" d="M 511.699219 794.230469 L 334.214844 794.230469 C 328.765625 794.230469 324.347656 789.808594 324.347656 784.359375 C 324.347656 778.910156 328.765625 774.488281 334.214844 774.488281 L 511.699219 774.488281 C 517.144531 774.488281 521.566406 778.910156 521.566406 784.359375 C 521.566406 789.808594 517.144531 794.230469 511.699219 794.230469 Z M 511.699219 794.230469 " fill-opacity="1" fill-rule="nonzero"/><path fill="#ffffff" d="M 294.734375 794.230469 L 274.996094 794.230469 C 269.546875 794.230469 265.125 789.808594 265.125 784.359375 C 265.125 778.910156 269.546875 774.488281 274.996094 774.488281 L 294.734375 774.488281 C 300.183594 774.488281 304.605469 778.910156 304.605469 784.359375 C 304.605469 789.808594 300.203125 794.230469 294.734375 794.230469 Z M 294.734375 794.230469 " fill-opacity="1" fill-rule="nonzero"/><path fill="#ffffff" d="M 235.515625 794.230469 L 196.035156 794.230469 C 190.585938 794.230469 186.164062 789.808594 186.164062 784.359375 C 186.164062 778.910156 190.585938 774.488281 196.035156 774.488281 L 235.515625 774.488281 C 240.964844 774.488281 245.386719 778.910156 245.386719 784.359375 C 245.386719 789.808594 240.984375 794.230469 235.515625 794.230469 Z M 235.515625 794.230469 " fill-opacity="1" fill-rule="nonzero"/><path fill="#ffffff" d="M 353.957031 833.710938 L 314.476562 833.710938 C 309.027344 833.710938 304.605469 829.289062 304.605469 823.839844 C 304.605469 818.390625 309.027344 813.96875 314.476562 813.96875 L 353.957031 813.96875 C 359.402344 813.96875 363.824219 818.390625 363.824219 823.839844 C 363.824219 829.289062 359.402344 833.710938 353.957031 833.710938 Z M 353.957031 833.710938 " fill-opacity="1" fill-rule="nonzero"/><path fill="#ffffff" d="M 413.175781 656.050781 C 409.683594 656.050781 396.929688 656.050781 393.4375 656.050781 C 387.988281 656.050781 383.566406 660.472656 383.566406 665.917969 C 383.566406 671.367188 387.988281 675.789062 393.4375 675.789062 C 396.929688 675.789062 409.683594 675.789062 413.175781 675.789062 C 418.625 675.789062 423.046875 671.367188 423.046875 665.917969 C 423.046875 660.472656 418.625 656.050781 413.175781 656.050781 Z M 413.175781 656.050781 " fill-opacity="1" fill-rule="nonzero"/><path fill="#ffffff" d="M 413.175781 695.53125 C 409.683594 695.53125 317.96875 695.53125 314.476562 695.53125 C 309.027344 695.53125 304.605469 699.953125 304.605469 705.398438 C 304.605469 710.847656 309.027344 715.269531 314.476562 715.269531 C 317.96875 715.269531 409.683594 715.269531 413.175781 715.269531 C 418.625 715.269531 423.046875 710.847656 423.046875 705.398438 C 423.046875 699.953125 418.625 695.53125 413.175781 695.53125 Z M 413.175781 695.53125 " fill-opacity="1" fill-rule="nonzero"/><path fill="#ffffff" d="M 511.875 735.007812 C 508.382812 735.007812 456.148438 735.007812 452.65625 735.007812 C 447.207031 735.007812 442.785156 739.429688 442.785156 744.878906 C 442.785156 750.328125 447.207031 754.75 452.65625 754.75 C 456.148438 754.75 508.382812 754.75 511.875 754.75 C 517.324219 754.75 521.746094 750.328125 521.746094 744.878906 C 521.746094 739.429688 517.324219 735.007812 511.875 735.007812 Z M 511.875 735.007812 " fill-opacity="1" fill-rule="nonzero"/><path fill="#ffffff" d="M 1459.394531 261.25 L 1261.996094 261.25 C 1256.546875 261.25 1252.125 256.828125 1252.125 251.378906 C 1252.125 245.929688 1256.546875 241.507812 1261.996094 241.507812 L 1459.394531 241.507812 C 1464.84375 241.507812 1469.265625 245.929688 1469.265625 251.378906 C 1469.265625 256.828125 1464.84375 261.25 1459.394531 261.25 Z M 1459.394531 261.25 " fill-opacity="1" fill-rule="nonzero"/><path fill="#ffffff" d="M 1538.355469 261.25 L 1498.875 261.25 C 1493.425781 261.25 1489.003906 256.828125 1489.003906 251.378906 C 1489.003906 245.929688 1493.425781 241.507812 1498.875 241.507812 L 1538.355469 241.507812 C 1543.804688 241.507812 1548.226562 245.929688 1548.226562 251.378906 C 1548.226562 256.828125 1543.804688 261.25 1538.355469 261.25 Z M 1538.355469 261.25 " fill-opacity="1" fill-rule="nonzero"/><path fill="#ffffff" d="M 1637.054688 300.730469 L 1439.65625 300.730469 C 1434.207031 300.730469 1429.785156 296.308594 1429.785156 290.859375 C 1429.785156 285.410156 1434.207031 280.988281 1439.65625 280.988281 L 1637.054688 280.988281 C 1642.503906 280.988281 1646.925781 285.410156 1646.925781 290.859375 C 1646.925781 296.308594 1642.523438 300.730469 1637.054688 300.730469 Z M 1637.054688 300.730469 " fill-opacity="1" fill-rule="nonzero"/><path fill="#ffffff" d="M 1400.175781 300.730469 L 1380.4375 300.730469 C 1374.988281 300.730469 1370.566406 296.308594 1370.566406 290.859375 C 1370.566406 285.410156 1374.988281 280.988281 1380.4375 280.988281 L 1400.175781 280.988281 C 1405.625 280.988281 1410.046875 285.410156 1410.046875 290.859375 C 1410.046875 296.308594 1405.625 300.730469 1400.175781 300.730469 Z M 1400.175781 300.730469 " fill-opacity="1" fill-rule="nonzero"/><path fill="#ffffff" d="M 1338.488281 300.730469 L 1301.476562 300.730469 C 1296.027344 300.730469 1291.605469 296.308594 1291.605469 290.859375 C 1291.605469 285.410156 1296.027344 280.988281 1301.476562 280.988281 L 1338.488281 280.988281 C 1343.9375 280.988281 1348.359375 285.410156 1348.359375 290.859375 C 1348.359375 296.308594 1343.9375 300.730469 1338.488281 300.730469 Z M 1338.488281 300.730469 " fill-opacity="1" fill-rule="nonzero"/><path fill="#ffffff" d="M 1518.617188 221.769531 L 1419.914062 221.769531 C 1414.46875 221.769531 1410.046875 217.347656 1410.046875 211.898438 C 1410.046875 206.453125 1414.46875 202.03125 1419.914062 202.03125 L 1518.617188 202.03125 C 1524.0625 202.03125 1528.484375 206.453125 1528.484375 211.898438 C 1528.484375 217.347656 1524.082031 221.769531 1518.617188 221.769531 Z M 1518.617188 221.769531 " fill-opacity="1" fill-rule="nonzero"/><path fill="#ffffff" d="M 1459.394531 340.210938 L 1419.914062 340.210938 C 1414.46875 340.210938 1410.046875 335.789062 1410.046875 330.339844 C 1410.046875 324.890625 1414.46875 320.46875 1419.914062 320.46875 L 1459.394531 320.46875 C 1464.84375 320.46875 1469.265625 324.890625 1469.265625 330.339844 C 1469.265625 335.789062 1464.84375 340.210938 1459.394531 340.210938 Z M 1459.394531 340.210938 " fill-opacity="1" fill-rule="nonzero"/><path fill="#fdfcef" d="M 656.273438 1277.859375 C 656.273438 1277.859375 887.054688 1277.859375 888.457031 1277.859375 C 941.753906 1277.859375 984.945312 1234.648438 984.945312 1181.351562 C 984.945312 1134.863281 952.058594 1096.054688 908.273438 1086.914062 C 908.789062 1082.847656 909.125 1078.722656 909.125 1074.519531 C 909.125 1019.324219 864.371094 974.574219 809.179688 974.574219 C 776.589844 974.574219 747.730469 990.246094 729.488281 1014.390625 C 724.832031 952.9375 669.933594 905.542969 605.71875 913.398438 C 558.757812 919.144531 519.929688 955.445312 511.285156 1001.953125 C 508.519531 1016.878906 508.796875 1031.347656 511.558594 1044.925781 C 498.964844 1031.367188 481.042969 1022.839844 461.085938 1022.839844 C 424.566406 1022.839844 394.738281 1051.285156 392.390625 1087.210938 C 375.808594 1083.539062 357.765625 1083.777344 338.757812 1090.921875 C 302.433594 1104.5625 276.574219 1138.75 275.054688 1177.519531 C 272.902344 1232.578125 316.902344 1277.898438 371.484375 1277.898438 C 375.628906 1277.898438 390.199219 1277.898438 393.554688 1277.898438 L 593.933594 1277.898438 " fill-opacity="1" fill-rule="nonzero"/><path fill="#472b29" d="M 888.4375 1287.730469 L 656.273438 1287.730469 C 650.824219 1287.730469 646.402344 1283.308594 646.402344 1277.859375 C 646.402344 1272.410156 650.824219 1267.988281 656.273438 1267.988281 L 888.457031 1267.988281 C 936.226562 1267.988281 975.09375 1229.121094 975.09375 1181.351562 C 975.09375 1140.546875 946.15625 1104.898438 906.28125 1096.566406 C 901.265625 1095.519531 897.871094 1090.804688 898.503906 1085.710938 C 898.9375 1082.039062 899.273438 1078.308594 899.273438 1074.519531 C 899.273438 1024.851562 858.867188 984.445312 809.199219 984.445312 C 780.8125 984.445312 754.617188 997.53125 737.386719 1020.332031 C 734.917969 1023.609375 730.632812 1025.011719 726.746094 1023.863281 C 722.796875 1022.699219 719.996094 1019.226562 719.679688 1015.140625 C 717.625 987.957031 704.320312 962.414062 683.160156 945.082031 C 661.761719 927.574219 634.757812 919.835938 606.945312 923.191406 C 564.207031 928.421875 528.871094 961.546875 521.015625 1003.75 C 518.566406 1016.917969 518.648438 1030.101562 521.273438 1042.953125 C 522.140625 1047.296875 520.046875 1051.679688 516.101562 1053.691406 C 512.210938 1055.707031 507.375 1054.894531 504.355469 1051.640625 C 493.023438 1039.421875 477.648438 1032.707031 461.125 1032.707031 C 430.171875 1032.707031 404.3125 1056.929688 402.300781 1087.84375 C 402.101562 1090.722656 400.679688 1093.371094 398.371094 1095.085938 C 396.082031 1096.804688 393.082031 1097.4375 390.335938 1096.824219 C 373.675781 1093.152344 357.964844 1094.238281 342.289062 1100.121094 C 309.34375 1112.476562 286.308594 1143.726562 284.984375 1177.855469 C 284.054688 1201.683594 292.625 1224.246094 309.105469 1241.378906 C 325.550781 1258.554688 347.738281 1267.988281 371.503906 1267.988281 L 593.972656 1267.988281 C 599.421875 1267.988281 603.84375 1272.410156 603.84375 1277.859375 C 603.84375 1283.308594 599.421875 1287.730469 593.972656 1287.730469 L 371.503906 1287.730469 C 342.308594 1287.730469 315.085938 1276.140625 294.835938 1255.097656 C 274.582031 1234.054688 264.058594 1206.359375 265.203125 1177.105469 C 266.863281 1135.140625 295.03125 1096.785156 335.320312 1081.644531 C 351.113281 1075.722656 367.457031 1073.75 384.039062 1075.761719 C 391.480469 1039.777344 423.441406 1012.949219 461.105469 1012.949219 C 474.625 1012.949219 487.832031 1016.484375 499.480469 1023.015625 C 499.460938 1015.398438 500.171875 1007.757812 501.589844 1000.136719 C 510.988281 949.5625 553.289062 909.867188 604.515625 903.589844 C 637.835938 899.523438 670.070312 908.859375 695.636719 929.804688 C 715.453125 946.050781 729.507812 968.316406 735.867188 992.832031 C 755.84375 974.753906 781.621094 964.703125 809.160156 964.703125 C 869.703125 964.703125 918.972656 1013.976562 918.972656 1074.519531 C 918.972656 1076.15625 918.933594 1077.796875 918.835938 1079.433594 C 963.328125 1092.699219 994.796875 1134.25 994.796875 1181.371094 C 994.816406 1240.019531 947.101562 1287.730469 888.4375 1287.730469 Z M 888.4375 1287.730469 " fill-opacity="1" fill-rule="nonzero"/><path fill="#fdfcef" d="M 600.351562 1065.28125 C 564.660156 1062.929688 533.925781 1087.585938 531.734375 1120.335938 C 531.457031 1124.402344 531.636719 1128.40625 532.226562 1132.296875 C 525.339844 1124.519531 515.152344 1119.25 503.445312 1118.480469 C 482.027344 1117.078125 463.53125 1131.210938 460.847656 1150.457031 C 456.960938 1149.390625 452.894531 1148.679688 448.6875 1148.40625 C 417.460938 1146.351562 390.574219 1167.929688 388.640625 1196.589844 " fill-opacity="1" fill-rule="nonzero"/><path fill="#472b29" d="M 388.640625 1201.503906 C 388.519531 1201.503906 388.421875 1201.503906 388.304688 1201.503906 C 385.578125 1201.328125 383.527344 1198.980469 383.722656 1196.253906 C 385.816406 1164.945312 414.578125 1141.316406 449.023438 1143.46875 C 451.6875 1143.648438 454.375 1144.003906 457.078125 1144.515625 C 462.445312 1125.425781 481.851562 1112.160156 503.761719 1113.5625 C 512.171875 1114.117188 520.027344 1116.742188 526.71875 1121.105469 C 526.738281 1120.730469 526.757812 1120.375 526.800781 1120.019531 C 529.167969 1084.605469 562.332031 1057.917969 600.667969 1060.363281 C 603.390625 1060.542969 605.445312 1062.890625 605.246094 1065.613281 C 605.089844 1068.320312 603.152344 1070.453125 599.996094 1070.214844 C 567.265625 1068.160156 538.644531 1090.703125 536.609375 1120.691406 C 536.375 1124.359375 536.53125 1128.03125 537.0625 1131.566406 C 537.398438 1133.738281 536.253906 1135.851562 534.28125 1136.796875 C 532.265625 1137.707031 529.917969 1137.230469 528.476562 1135.59375 C 522.21875 1128.527344 512.960938 1124.085938 503.070312 1123.433594 C 484.140625 1122.171875 468.054688 1134.390625 465.703125 1151.167969 C 465.488281 1152.570312 464.695312 1153.8125 463.53125 1154.601562 C 462.367188 1155.394531 460.867188 1155.628906 459.523438 1155.253906 C 455.792969 1154.246094 452.023438 1153.597656 448.332031 1153.359375 C 419.671875 1151.40625 395.292969 1171.046875 393.535156 1196.945312 C 393.375 1199.511719 391.226562 1201.503906 388.640625 1201.503906 Z M 388.640625 1201.503906 " fill-opacity="1" fill-rule="nonzero"/><path fill="#fdfcef" d="M 927.519531 1098.226562 C 893.984375 1082.414062 855.195312 1093.605469 840.882812 1123.234375 C 839.105469 1126.90625 837.78125 1130.71875 836.914062 1134.566406 " fill-opacity="1" fill-rule="nonzero"/><path fill="#472b29" d="M 836.914062 1139.480469 C 836.539062 1139.480469 836.183594 1139.441406 835.789062 1139.363281 C 833.144531 1138.75 831.484375 1136.085938 832.097656 1133.441406 C 833.085938 1129.179688 834.527344 1125.011719 836.421875 1121.105469 C 851.878906 1089.085938 893.667969 1076.828125 929.613281 1093.785156 C 932.082031 1094.949219 933.148438 1097.890625 931.984375 1100.359375 C 930.796875 1102.824219 927.835938 1103.851562 925.410156 1102.726562 C 894.320312 1088.058594 858.410156 1098.265625 845.324219 1125.40625 C 843.746094 1128.664062 842.519531 1132.117188 841.691406 1135.691406 C 841.199219 1137.941406 839.164062 1139.480469 836.914062 1139.480469 Z M 836.914062 1139.480469 " fill-opacity="1" fill-rule="nonzero"/><path fill="#e55838" d="M 620.230469 1031.328125 L 620.230469 478.171875 C 620.230469 401.859375 682.09375 339.992188 758.410156 339.992188 L 1311.582031 339.992188 C 1387.898438 339.992188 1449.761719 401.859375 1449.761719 478.171875 L 1449.761719 1031.347656 C 1449.761719 1107.660156 1387.898438 1169.527344 1311.582031 1169.527344 L 758.410156 1169.527344 C 682.09375 1169.507812 620.230469 1107.640625 620.230469 1031.328125 Z M 620.230469 1031.328125 " fill-opacity="1" fill-rule="nonzero"/><path fill="#472b29" d="M 1311.34375 348.105469 C 1383.179688 348.105469 1441.628906 406.554688 1441.628906 478.390625 L 1441.628906 1031.109375 C 1441.628906 1102.945312 1383.179688 1161.394531 1311.34375 1161.394531 L 758.625 1161.394531 C 686.792969 1161.394531 628.339844 1102.945312 628.339844 1031.109375 L 628.339844 478.390625 C 628.339844 406.554688 686.792969 348.105469 758.625 348.105469 L 1311.34375 348.105469 M 1311.34375 320.46875 L 758.625 320.46875 C 671.414062 320.46875 600.707031 391.179688 600.707031 478.390625 L 600.707031 1031.109375 C 600.707031 1118.320312 671.414062 1189.03125 758.625 1189.03125 L 1311.34375 1189.03125 C 1398.558594 1189.03125 1469.265625 1118.320312 1469.265625 1031.109375 L 1469.265625 478.390625 C 1469.265625 391.179688 1398.558594 320.46875 1311.34375 320.46875 Z M 1311.34375 320.46875 " fill-opacity="1" fill-rule="nonzero"/><path fill="#472b29" d="M 1311.34375 1117.472656 L 758.625 1117.472656 C 710.992188 1117.472656 672.261719 1078.742188 672.261719 1031.109375 L 672.261719 478.390625 C 672.261719 430.757812 710.992188 392.027344 758.625 392.027344 L 1311.34375 392.027344 C 1358.976562 392.027344 1397.707031 430.757812 1397.707031 478.390625 L 1397.707031 549.945312 C 1397.707031 554.035156 1394.390625 557.351562 1390.304688 557.351562 C 1386.21875 557.351562 1382.902344 554.035156 1382.902344 549.945312 L 1382.902344 478.390625 C 1382.902344 438.929688 1350.804688 406.832031 1311.34375 406.832031 L 758.625 406.832031 C 719.164062 406.832031 687.066406 438.929688 687.066406 478.390625 L 687.066406 1031.109375 C 687.066406 1070.570312 719.164062 1102.667969 758.625 1102.667969 L 1311.34375 1102.667969 C 1350.804688 1102.667969 1382.902344 1070.570312 1382.902344 1031.109375 L 1382.902344 700.464844 C 1382.902344 696.378906 1386.21875 693.0625 1390.304688 693.0625 C 1394.390625 693.0625 1397.707031 696.378906 1397.707031 700.464844 L 1397.707031 1031.109375 C 1397.707031 1078.742188 1358.976562 1117.472656 1311.34375 1117.472656 Z M 1311.34375 1117.472656 " fill-opacity="1" fill-rule="nonzero"/><path fill="#472b29" d="M 1390.304688 656.050781 C 1386.21875 656.050781 1382.902344 652.734375 1382.902344 648.648438 L 1382.902344 584.492188 C 1382.902344 580.40625 1386.21875 577.089844 1390.304688 577.089844 C 1394.390625 577.089844 1397.707031 580.40625 1397.707031 584.492188 L 1397.707031 648.648438 C 1397.707031 652.734375 1394.390625 656.050781 1390.304688 656.050781 Z M 1390.304688 656.050781 " fill-opacity="1" fill-rule="nonzero"/><path fill="#fdfcef" d="M 1632.082031 1258.121094 C 1669.25 1258.121094 1701.507812 1258.121094 1701.960938 1258.121094 C 1743.613281 1258.121094 1777.386719 1225.074219 1777.386719 1184.3125 C 1777.386719 1148.742188 1751.6875 1119.070312 1717.476562 1112.0625 C 1717.871094 1108.945312 1718.148438 1105.804688 1718.148438 1102.589844 C 1718.148438 1060.363281 1683.167969 1026.136719 1640.035156 1026.136719 C 1614.570312 1026.136719 1592.007812 1038.117188 1577.757812 1056.59375 C 1574.105469 1009.59375 1531.210938 973.332031 1481.03125 979.351562 C 1444.332031 983.753906 1413.972656 1011.507812 1407.222656 1047.078125 C 1405.050781 1058.488281 1405.289062 1069.5625 1407.441406 1079.945312 C 1397.609375 1069.582031 1383.59375 1063.046875 1368 1063.046875 C 1339.457031 1063.046875 1316.140625 1084.800781 1314.304688 1112.28125 C 1301.335938 1109.476562 1287.242188 1109.65625 1272.398438 1115.101562 C 1244.011719 1125.527344 1223.796875 1151.679688 1222.613281 1181.351562 C 1220.9375 1223.457031 1255.324219 1258.121094 1297.980469 1258.121094 C 1301.21875 1258.121094 1312.609375 1258.121094 1315.234375 1258.121094 L 1471.851562 1258.121094 M 1504.207031 1258.121094 L 1511.3125 1258.121094 " fill-opacity="1" fill-rule="nonzero"/><path fill="#472b29" d="M 1701.941406 1267.988281 L 1632.0625 1267.988281 C 1626.613281 1267.988281 1622.191406 1263.566406 1622.191406 1258.121094 C 1622.191406 1252.671875 1626.613281 1248.25 1632.0625 1248.25 L 1701.941406 1248.25 C 1738.085938 1248.25 1767.496094 1219.566406 1767.496094 1184.3125 C 1767.496094 1154.226562 1745.625 1127.914062 1715.441406 1121.734375 C 1710.371094 1120.710938 1706.976562 1115.933594 1707.625 1110.800781 C 1707.980469 1108.09375 1708.21875 1105.371094 1708.21875 1102.589844 C 1708.21875 1065.871094 1677.601562 1036.003906 1639.976562 1036.003906 C 1618.402344 1036.003906 1598.542969 1045.699219 1585.496094 1062.613281 C 1583.027344 1065.871094 1578.722656 1067.195312 1574.875 1066.050781 C 1570.964844 1064.886719 1568.164062 1061.429688 1567.867188 1057.363281 C 1566.308594 1037.25 1556.714844 1019.007812 1540.824219 1005.980469 C 1524.476562 992.558594 1503.59375 986.554688 1482.136719 989.140625 C 1449.644531 993.03125 1422.796875 1017.609375 1416.855469 1048.914062 C 1415 1058.667969 1415.058594 1068.417969 1417.035156 1077.953125 C 1417.941406 1082.277344 1415.847656 1086.65625 1411.941406 1088.691406 C 1408.070312 1090.742188 1403.273438 1089.953125 1400.195312 1086.738281 C 1391.746094 1077.835938 1380.296875 1072.917969 1367.921875 1072.917969 C 1344.824219 1072.917969 1325.558594 1090.507812 1324.078125 1112.933594 C 1323.878906 1115.792969 1322.457031 1118.4375 1320.167969 1120.15625 C 1317.898438 1121.894531 1314.976562 1122.527344 1312.15625 1121.914062 C 1299.539062 1119.167969 1287.65625 1120 1275.695312 1124.359375 C 1250.78125 1133.519531 1233.371094 1156.578125 1232.40625 1181.726562 C 1231.714844 1199 1237.972656 1215.441406 1250.074219 1228.015625 C 1262.648438 1241.0625 1279.625 1248.25 1297.941406 1248.25 L 1471.8125 1248.25 C 1477.261719 1248.25 1481.683594 1252.671875 1481.683594 1258.121094 C 1481.683594 1263.566406 1477.261719 1267.988281 1471.8125 1267.988281 L 1297.941406 1267.988281 C 1274.550781 1267.988281 1251.929688 1258.414062 1235.878906 1241.695312 C 1220.027344 1225.214844 1211.816406 1203.636719 1212.703125 1180.9375 C 1214.007812 1147.890625 1236.628906 1117.707031 1268.945312 1105.824219 C 1281.023438 1101.382812 1293.519531 1099.765625 1306.074219 1100.988281 C 1312.886719 1073.433594 1338.230469 1053.140625 1367.980469 1053.140625 C 1377.710938 1053.140625 1387.265625 1055.371094 1395.871094 1059.515625 C 1396.070312 1054.738281 1396.601562 1049.960938 1397.511719 1045.183594 C 1405.03125 1005.527344 1438.886719 974.417969 1479.828125 969.5 C 1506.75 966.34375 1532.847656 973.804688 1553.398438 990.683594 C 1568.144531 1002.78125 1578.625 1018.496094 1583.914062 1036.105469 C 1599.53125 1023.3125 1619.152344 1016.246094 1640.035156 1016.246094 C 1688.558594 1016.246094 1728.015625 1054.957031 1728.015625 1102.566406 C 1728.015625 1103.238281 1727.996094 1103.910156 1727.976562 1104.601562 C 1762.820312 1115.558594 1787.277344 1147.792969 1787.277344 1184.3125 C 1787.257812 1230.445312 1748.980469 1267.988281 1701.941406 1267.988281 Z M 1511.292969 1267.988281 L 1504.207031 1267.988281 C 1498.757812 1267.988281 1494.335938 1263.566406 1494.335938 1258.121094 C 1494.335938 1252.671875 1498.757812 1248.25 1504.207031 1248.25 L 1511.292969 1248.25 C 1516.742188 1248.25 1521.160156 1252.671875 1521.160156 1258.121094 C 1521.160156 1263.566406 1516.761719 1267.988281 1511.292969 1267.988281 Z M 1511.292969 1267.988281 " fill-opacity="1" fill-rule="nonzero"/><path fill="#472b29" d="M 1668.246094 1153.4375 C 1667.890625 1153.4375 1667.535156 1153.398438 1667.160156 1153.320312 C 1664.496094 1152.726562 1662.816406 1150.082031 1663.429688 1147.417969 C 1664.179688 1144.121094 1665.304688 1140.921875 1666.785156 1137.960938 C 1678.707031 1113.820312 1711.652344 1104.9375 1740.238281 1118.105469 C 1742.722656 1119.25 1743.808594 1122.191406 1742.644531 1124.65625 C 1741.519531 1127.125 1738.519531 1128.191406 1736.109375 1127.066406 C 1712.34375 1116.089844 1685.203125 1122.921875 1675.648438 1142.34375 C 1674.503906 1144.613281 1673.632812 1147.042969 1673.082031 1149.589844 C 1672.546875 1151.878906 1670.515625 1153.4375 1668.246094 1153.4375 Z M 1668.246094 1153.4375 " fill-opacity="1" fill-rule="nonzero"/><path fill="#472b29" d="M 1566.40625 1267.988281 L 1544.554688 1267.988281 C 1539.105469 1267.988281 1534.683594 1263.566406 1534.683594 1258.121094 C 1534.683594 1252.671875 1539.105469 1248.25 1544.554688 1248.25 L 1566.40625 1248.25 C 1571.855469 1248.25 1576.277344 1252.671875 1576.277344 1258.121094 C 1576.277344 1263.566406 1571.875 1267.988281 1566.40625 1267.988281 Z M 1566.40625 1267.988281 " fill-opacity="1" fill-rule="nonzero"/><path fill="#472b29" d="M 1193.164062 1174.835938 C 1192.628906 1174.835938 1192.058594 1174.699219 1191.582031 1174.382812 C 1190.203125 1173.515625 1189.785156 1171.679688 1190.65625 1170.296875 L 1229.386719 1108.984375 C 1230.253906 1107.601562 1232.109375 1107.1875 1233.472656 1108.054688 C 1234.851562 1108.925781 1235.269531 1110.761719 1234.398438 1112.140625 L 1195.667969 1173.453125 C 1195.117188 1174.363281 1194.148438 1174.835938 1193.164062 1174.835938 Z M 1193.164062 1174.835938 " fill-opacity="1" fill-rule="nonzero"/><path fill="#472b29" d="M 1173.421875 1174.835938 C 1172.890625 1174.835938 1172.316406 1174.699219 1171.84375 1174.382812 C 1170.460938 1173.515625 1170.046875 1171.679688 1170.914062 1170.296875 L 1209.644531 1108.984375 C 1210.515625 1107.601562 1212.390625 1107.1875 1213.730469 1108.054688 C 1215.113281 1108.925781 1215.527344 1110.761719 1214.660156 1112.140625 L 1175.929688 1173.453125 C 1175.375 1174.363281 1174.410156 1174.835938 1173.421875 1174.835938 Z M 1173.421875 1174.835938 " fill-opacity="1" fill-rule="nonzero"/><path fill="#472b29" d="M 1153.683594 1174.835938 C 1153.148438 1174.835938 1152.578125 1174.699219 1152.101562 1174.382812 C 1150.722656 1173.515625 1150.308594 1171.679688 1151.175781 1170.296875 L 1189.90625 1108.984375 C 1190.773438 1107.601562 1192.648438 1107.1875 1193.992188 1108.054688 C 1195.375 1108.925781 1195.789062 1110.761719 1194.917969 1112.140625 L 1156.1875 1173.453125 C 1155.636719 1174.363281 1154.667969 1174.835938 1153.683594 1174.835938 Z M 1153.683594 1174.835938 " fill-opacity="1" fill-rule="nonzero"/><path fill="#472b29" d="M 1133.941406 1174.835938 C 1133.410156 1174.835938 1132.835938 1174.699219 1132.363281 1174.382812 C 1130.980469 1173.515625 1130.566406 1171.679688 1131.433594 1170.296875 L 1170.164062 1108.984375 C 1171.035156 1107.601562 1172.910156 1107.1875 1174.25 1108.054688 C 1175.632812 1108.925781 1176.046875 1110.761719 1175.179688 1112.140625 L 1136.449219 1173.453125 C 1135.898438 1174.363281 1134.929688 1174.835938 1133.941406 1174.835938 Z M 1133.941406 1174.835938 " fill-opacity="1" fill-rule="nonzero"/><path fill="#472b29" d="M 1114.203125 1174.835938 C 1113.667969 1174.835938 1113.097656 1174.699219 1112.625 1174.382812 C 1111.242188 1173.515625 1110.828125 1171.679688 1111.695312 1170.296875 L 1150.425781 1108.984375 C 1151.292969 1107.601562 1153.167969 1107.1875 1154.511719 1108.054688 C 1155.894531 1108.925781 1156.308594 1110.761719 1155.4375 1112.140625 L 1116.710938 1173.453125 C 1116.15625 1174.363281 1115.1875 1174.835938 1114.203125 1174.835938 Z M 1114.203125 1174.835938 " fill-opacity="1" fill-rule="nonzero"/><path fill="#472b29" d="M 1094.460938 1174.835938 C 1093.929688 1174.835938 1093.355469 1174.699219 1092.882812 1174.382812 C 1091.5 1173.515625 1091.085938 1171.679688 1091.957031 1170.296875 L 1130.683594 1108.984375 C 1131.554688 1107.601562 1133.410156 1107.1875 1134.769531 1108.054688 C 1136.152344 1108.925781 1136.566406 1110.761719 1135.699219 1112.140625 L 1096.96875 1173.453125 C 1096.417969 1174.363281 1095.449219 1174.835938 1094.460938 1174.835938 Z M 1094.460938 1174.835938 " fill-opacity="1" fill-rule="nonzero"/><path fill="#472b29" d="M 1074.722656 1174.835938 C 1074.1875 1174.835938 1073.617188 1174.699219 1073.144531 1174.382812 C 1071.761719 1173.515625 1071.347656 1171.679688 1072.214844 1170.296875 L 1097.816406 1129.769531 C 1098.6875 1128.386719 1100.542969 1127.972656 1101.90625 1128.84375 C 1103.285156 1129.710938 1103.699219 1131.546875 1102.832031 1132.929688 L 1077.230469 1173.453125 C 1076.675781 1174.363281 1075.710938 1174.835938 1074.722656 1174.835938 Z M 1074.722656 1174.835938 " fill-opacity="1" fill-rule="nonzero"/><path fill="#472b29" d="M 1054.980469 1174.835938 C 1054.449219 1174.835938 1053.875 1174.699219 1053.402344 1174.382812 C 1052.019531 1173.515625 1051.605469 1171.679688 1052.476562 1170.296875 L 1068.523438 1144.851562 C 1069.371094 1143.449219 1071.269531 1143.074219 1072.609375 1143.921875 C 1073.992188 1144.792969 1074.40625 1146.628906 1073.539062 1148.011719 L 1057.488281 1173.453125 C 1056.9375 1174.363281 1055.96875 1174.835938 1054.980469 1174.835938 Z M 1054.980469 1174.835938 " fill-opacity="1" fill-rule="nonzero"/><path fill="#ffffff" d="M 1266.929688 601.765625 L 1168.230469 601.765625 L 1168.230469 591.5 C 1168.230469 519.054688 1107.429688 463.585938 1034.984375 463.585938 C 962.539062 463.585938 901.742188 519.171875 901.742188 591.617188 L 901.742188 601.765625 L 803.039062 601.765625 C 791.511719 601.765625 782.332031 611.398438 782.867188 622.90625 L 800.160156 968.515625 C 801.699219 1000.789062 828.308594 1026.175781 860.621094 1026.175781 L 1209.289062 1026.175781 C 1241.625 1026.175781 1268.234375 1000.769531 1269.773438 968.472656 L 1287.066406 622.886719 C 1287.617188 611.398438 1278.4375 601.765625 1266.929688 601.765625 Z M 941.222656 591.597656 C 941.222656 541.4375 984.828125 503.066406 1034.984375 503.066406 C 1085.144531 503.066406 1128.75 541.378906 1128.75 591.519531 L 1128.75 601.765625 L 941.222656 601.765625 Z M 941.222656 591.597656 " fill-opacity="1" fill-rule="nonzero"/><path fill="#472b29" d="M 1209.308594 1031.109375 L 860.640625 1031.109375 C 825.644531 1031.109375 796.902344 1003.710938 795.242188 968.75 L 777.953125 623.164062 C 777.617188 616.214844 780.0625 609.640625 784.859375 604.625 C 789.617188 599.613281 796.09375 596.828125 803.039062 596.828125 L 896.804688 596.828125 L 896.804688 591.617188 C 896.804688 518.285156 958.808594 458.648438 1034.984375 458.648438 C 1111.164062 458.648438 1173.164062 518.265625 1173.164062 591.5 L 1173.164062 596.828125 L 1266.929688 596.828125 C 1273.859375 596.828125 1280.3125 599.59375 1285.089844 604.605469 C 1289.867188 609.621094 1292.335938 616.214844 1292.019531 623.125 L 1274.726562 968.730469 C 1273.070312 1003.691406 1244.328125 1031.109375 1209.308594 1031.109375 Z M 803.039062 606.699219 C 798.816406 606.699219 794.886719 608.378906 791.984375 611.417969 C 789.085938 614.457031 787.585938 618.445312 787.800781 622.667969 L 805.09375 968.257812 C 806.496094 997.964844 830.914062 1021.238281 860.621094 1021.238281 L 1209.289062 1021.238281 C 1239.039062 1021.238281 1263.4375 997.945312 1264.820312 968.238281 L 1282.109375 622.628906 C 1282.328125 618.445312 1280.828125 614.457031 1277.90625 611.417969 C 1275.023438 608.378906 1271.09375 606.699219 1266.890625 606.699219 L 1168.191406 606.699219 C 1165.46875 606.699219 1163.257812 604.488281 1163.257812 601.765625 L 1163.257812 591.5 C 1163.257812 523.671875 1105.695312 468.519531 1034.945312 468.519531 C 964.199219 468.519531 906.636719 523.753906 906.636719 591.617188 L 906.636719 601.765625 C 906.636719 604.488281 904.425781 606.699219 901.699219 606.699219 Z M 1128.75 606.699219 L 941.222656 606.699219 C 938.496094 606.699219 936.285156 604.488281 936.285156 601.765625 L 936.285156 591.597656 C 936.285156 540.058594 980.5625 498.128906 1034.984375 498.128906 C 1089.410156 498.128906 1133.6875 540.019531 1133.6875 591.519531 L 1133.6875 601.765625 C 1133.6875 604.488281 1131.476562 606.699219 1128.75 606.699219 Z M 946.15625 596.828125 L 1123.816406 596.828125 L 1123.816406 591.519531 C 1123.816406 545.464844 1083.960938 508 1034.984375 508 C 986.011719 508 946.15625 545.503906 946.15625 591.597656 Z M 946.15625 596.828125 " fill-opacity="1" fill-rule="nonzero"/><path fill="#e55838" d="M 1042.449219 795.945312 C 1004.347656 782.011719 981.214844 771.726562 981.214844 746.222656 C 981.214844 720.5 1005.890625 701.808594 1039.921875 701.808594 C 1063.332031 701.808594 1083.824219 710.984375 1093.96875 716.433594 C 1095.6875 717.363281 1100.5625 720.285156 1103.304688 722.140625 L 1105.121094 723.34375 L 1118.445312 701.6875 L 1116.253906 700.246094 C 1105.515625 693.003906 1076.578125 676.164062 1039.941406 676.164062 C 991.875 676.164062 955.609375 706.269531 955.609375 746.203125 C 955.609375 791.464844 997.066406 806.625 1033.664062 819.992188 C 1076.339844 835.585938 1102.238281 847.449219 1102.238281 880.433594 C 1102.238281 905.839844 1073.519531 926.488281 1038.183594 926.488281 C 998.367188 926.488281 964.160156 897.234375 963.84375 896.957031 L 962.066406 895.316406 L 947.539062 916.753906 L 949.019531 917.960938 C 958.886719 926.015625 994.519531 952.148438 1038.164062 952.148438 C 1088.460938 952.148438 1127.863281 920.644531 1127.863281 880.453125 C 1127.863281 827.15625 1082.480469 810.59375 1042.449219 795.945312 Z M 1042.449219 795.945312 " fill-opacity="1" fill-rule="nonzero"/><path fill="#472b29" d="M 1227.449219 971.890625 C 1227.371094 971.890625 1227.292969 971.890625 1227.214844 971.890625 C 1224.488281 971.75 1222.398438 969.441406 1222.515625 966.71875 L 1232.386719 759.449219 C 1232.523438 756.722656 1234.636719 754.808594 1237.558594 754.75 C 1240.28125 754.886719 1242.375 757.199219 1242.253906 759.921875 L 1232.386719 967.191406 C 1232.246094 969.835938 1230.074219 971.890625 1227.449219 971.890625 Z M 1227.449219 971.890625 " fill-opacity="1" fill-rule="nonzero"/><path fill="#472b29" d="M 1239.789062 715.269531 C 1239.730469 715.269531 1239.667969 715.269531 1239.609375 715.269531 C 1236.886719 715.171875 1234.753906 712.882812 1234.851562 710.15625 L 1237.320312 641.066406 C 1237.417969 638.34375 1239.453125 636.386719 1242.433594 636.308594 C 1245.15625 636.410156 1247.289062 638.699219 1247.191406 641.421875 L 1244.722656 710.511719 C 1244.625 713.175781 1242.433594 715.269531 1239.789062 715.269531 Z M 1239.789062 715.269531 " fill-opacity="1" fill-rule="nonzero"/></svg>