<svg xmlns="http://www.w3.org/2000/svg" viewBox="0 0 750 500"><defs><style>.cls-1{fill:#dff1f4;}.cls-2{fill:#1d3244;}.cls-22,.cls-3{fill:none;stroke-miterlimit:10;}.cls-3{stroke:#3c3c5b;}.cls-4{fill:#ffb692;}.cls-5{fill:#d88d87;}.cls-6{fill:#709632;}.cls-7{fill:#9dc11e;}.cls-8{fill:#aa635f;}.cls-9{fill:#252538;}.cls-10{fill:#fff;}.cls-11{fill:#325066;}.cls-12{fill:#6f97dd;}.cls-13{fill:#3c3c5b;}.cls-14{fill:#ff5050;}.cls-15{fill:#af2f2f;}.cls-16{fill:#3e3d5e;}.cls-17{fill:#edcb3a;}.cls-18{fill:#e59f01;}.cls-19{fill:#bfdee2;}.cls-20{fill:#a94bbc;}.cls-21{fill:#e28703;}.cls-22{stroke:#bfdee2;}.cls-23{fill:#6d6da0;}.cls-24{fill:#8787c4;}</style></defs><title>tryout</title><g id="BACKGROUND"><circle class="cls-1" cx="333.2" cy="291.8" r="138.76" transform="translate(-108.74 321.08) rotate(-45)"/><circle class="cls-1" cx="416.8" cy="208.2" r="138.76" transform="translate(-25.15 355.7) rotate(-45)"/></g><g id="OBJECTS"><path class="cls-2" d="M360.92,407.75h-10a14.78,14.78,0,0,0-14.78,14.78v2.7h39.57v-2.7A14.78,14.78,0,0,0,360.92,407.75Z"/><path class="cls-3" d="M247.7,422.72c26.37-27.64,42.22,9.54,94.07-.83"/><path class="cls-4" d="M296.1,261.58,377,291.86a15.72,15.72,0,1,0,11-29.45l-68.46-25.64,29.78-91.13c1.07-5.73,1.63-12-4.1-13.52a11.3,11.3,0,0,0-13.85,7.94L286.29,243.34l-3.59,13.23Z"/><polygon class="cls-5" points="366.13 287.81 377.97 258.66 351.37 248.7 334.13 275.82 366.13 287.81"/><path class="cls-6" d="M340.09,288.51l18.13-47.75L393.06,254a25.53,25.53,0,0,1,14.82,32.93h0a25.55,25.55,0,0,1-32.94,14.82Z"/><path class="cls-5" d="M310,94.41c-1.6,2.28.21,6.17,1.31,9.12s15.19,29.13,15.19,29.13l7-3.63Z"/><path class="cls-4" d="M343.19,153.54a9.71,9.71,0,0,0,7.56-8c.91-5.81.14-11-4.61-15.63-5.69-5.58-26.85-32.41-32.15-39.16a2.63,2.63,0,0,0-3.79-.38c-1,.84-1.69,2.28-1,4.71,1.53,5.26,13.71,25.38,14.51,31.33s6.7,29.85,6.7,29.85Z"/><path class="cls-5" d="M314.08,97.6c.76,1.41,14.74,27.07,14.74,27.07l.91-.5s-14-25.65-14.74-27.06c-.36-.66-1.82-3.65-.58-5.84l-.42-.52a2.16,2.16,0,0,0-.29-.31C311.84,93.11,313.65,96.81,314.08,97.6Z"/><path class="cls-7" d="M388.54,422.83a12.41,12.41,0,0,0,7,11.29,112.48,112.48,0,0,0,96.3.52,12.46,12.46,0,0,0,7.21-11.27c.24-43.62.47-83.58.7-126.94a45.33,45.33,0,0,0-45.09-45.58l-22.85-.12a42.33,42.33,0,0,0-42.56,42.11Z"/><ellipse class="cls-4" cx="439.48" cy="267.38" rx="34.38" ry="16.66"/><path class="cls-4" d="M403.5,136l2-.5c12.92-3.17,27.29,10.1,32.1,29.64l24.73,100.44-48.81,12L388.81,177.1C384,157.55,390.58,139.13,403.5,136Z"/><path class="cls-5" d="M392.85,138.53l2-.5c12.92-3.18,27.13,9.41,31.73,28.13l16.82,68.36A25.15,25.15,0,0,1,425,264.93h0a25.14,25.14,0,0,1-30.41-18.41l-16.82-68.36C373.18,159.45,379.93,141.7,392.85,138.53Z"/><circle class="cls-2" cx="408.63" cy="167.7" r="58.83" transform="translate(159.59 532.5) rotate(-77.99)"/><path class="cls-5" d="M465.9,199.28,357.1,208a8.65,8.65,0,0,1-9.31-7.93h0a8.65,8.65,0,0,1,7.93-9.31L464.52,182a8.65,8.65,0,0,1,9.31,7.93h0A8.65,8.65,0,0,1,465.9,199.28Z"/><path class="cls-8" d="M352.3,199.67h0a4.11,4.11,0,0,1,3.78-4.43l108.8-8.69a4.12,4.12,0,0,1,4.44,3.78h0a4.12,4.12,0,0,1-3.78,4.44l-108.8,8.68A4.12,4.12,0,0,1,352.3,199.67Z"/><path class="cls-4" d="M416.21,262.62h0a48.26,48.26,0,0,1-51.95-44.27L360,164.94a46.27,46.27,0,0,1,42.45-49.81l4-.32a46.27,46.27,0,0,1,49.8,42.45l4.27,53.41A48.26,48.26,0,0,1,416.21,262.62Z"/><path class="cls-5" d="M437.28,188.32h-10.8a4.46,4.46,0,1,0,0,8.91h10.8a4.46,4.46,0,1,0,0-8.91Z"/><path class="cls-5" d="M387.88,190.8l-10.7,1.55a4.45,4.45,0,1,0,1.28,8.81l10.69-1.54a4.46,4.46,0,0,0-1.27-8.82Z"/><path class="cls-9" d="M384.84,188.11a5.65,5.65,0,1,0,6.08,5.18A5.65,5.65,0,0,0,384.84,188.11Z"/><path class="cls-9" d="M427.51,184.7a5.65,5.65,0,1,0,6.08,5.19A5.67,5.67,0,0,0,427.51,184.7Z"/><path class="cls-5" d="M408.49,215.43h0a8,8,0,0,1-8.65-7.38l-1-13a8,8,0,0,1,7.37-8.65h0a8,8,0,0,1,8.66,7.37l1,13A8,8,0,0,1,408.49,215.43Z"/><path class="cls-2" d="M436.09,176l-10-2.29a4.07,4.07,0,0,0-1.82,7.94l10,2.3a4.08,4.08,0,0,0,1.82-7.95Z"/><path class="cls-2" d="M384.12,177l-9.51,3.85a4.07,4.07,0,1,0,3.05,7.55l9.52-3.85a4.07,4.07,0,1,0-3.06-7.55Z"/><path class="cls-5" d="M427.18,244.34c.2,2.55-4.58,5-10.67,5.5s-11.2-1.19-11.41-3.74,4.58-5,10.67-5.5S427,241.79,427.18,244.34Z"/><path class="cls-10" d="M422.51,227.94A94.32,94.32,0,0,0,406,232.86c-3.82,1.6-7.22-2.36-5.74-6.45,1.22-3.35,4.85-6.26,9.58-7.8,5.3-1.72,11.51.42,13.91,2.08C427.16,223.05,426.5,227.1,422.51,227.94Z"/><path class="cls-2" d="M350,172.38s-14.89-52.06,21.69-80.94l1.43,18s37.41-12.74,65.24,7.87,19.86,65,19.86,65L459.7,201l-7.6.61-2.55-32s-17.12-1.15-19.1-19l-64.94,5.19s2.48,14.69-4.58,20.87Z"/><path class="cls-11" d="M453,129.05a58.56,58.56,0,0,0-8.4-7.88,80.57,80.57,0,0,1-45.05,18.25c-24.41,2-39.27-10-47.57-20.82a76.27,76.27,0,0,0-3.89,15C388.45,154.65,432.77,138.71,453,129.05Z"/><path class="cls-4" d="M517.21,377.51l-8.29-85.94a15.72,15.72,0,0,0-31.3,3l7,72.76-95.33,30.1c-5.62,1.55-11.47,3.79-10.35,9.61a11.3,11.3,0,0,0,13.22,9l112.94-21.69,13.47-2.58Z"/><polygon class="cls-5" points="510.03 303.07 478.65 305.23 481.37 333.5 513.31 337.09 510.03 303.07"/><path class="cls-6" d="M522.09,326.16l-50.86,4.67-3.41-37.11A25.54,25.54,0,0,1,490.92,266h0a25.54,25.54,0,0,1,27.77,23.1Z"/><path class="cls-4" d="M389.43,416.23c-10.37.63-28.36.44-35.54-7.45,0,0-15.8,5.93-20.19,6.2a6.59,6.59,0,0,1-6.21-3.35s26.14-19.67,31.84-21.74,32,7.23,32,7.23l3.83,11.17A6.29,6.29,0,0,1,389.43,416.23Z"/><rect class="cls-12" x="111.45" y="395.23" width="121.33" height="30" transform="translate(344.24 820.46) rotate(180)"/><rect class="cls-10" x="148.56" y="400.91" width="75.33" height="18.63" transform="translate(372.46 820.46) rotate(180)"/><circle class="cls-10" cx="127.01" cy="410.23" r="8"/><circle class="cls-13" cx="127.01" cy="410.23" r="6.22"/><rect class="cls-14" x="122.27" y="365.14" width="121.33" height="30"/><rect class="cls-10" x="131.16" y="370.83" width="75.33" height="18.63"/><circle class="cls-10" cx="228.05" cy="380.14" r="8" transform="translate(-40.81 27.68) rotate(-6.38)"/><path class="cls-13" d="M221.82,380.14a6.23,6.23,0,1,1,6.23,6.23A6.22,6.22,0,0,1,221.82,380.14Z"/><circle class="cls-14" cx="568.47" cy="100.88" r="65.58" transform="translate(324.24 624.03) rotate(-75.04)"/><circle class="cls-15" cx="568.47" cy="100.88" r="59.05" transform="translate(-8.45 123.23) rotate(-12.28)"/><circle class="cls-1" cx="568.47" cy="100.88" r="53.66" transform="translate(95.17 431.52) rotate(-45)"/><circle class="cls-10" cx="568.47" cy="100.88" r="50.62" transform="translate(95.17 431.52) rotate(-45)"/><path class="cls-2" d="M522.8,125.36q.63,1.13,1.32,2.22l4.57-2.89c-.41-.65-.81-1.31-1.18-2Z"/><path class="cls-2" d="M569.58,49.17c-.85,0-1.71-.05-2.57,0l0,5.4c.77,0,1.55,0,2.31,0Z"/><path class="cls-2" d="M545.75,59.78,543.26,55c-.76.39-1.52.81-2.26,1.24l2.73,4.67C544.39,60.5,545.07,60.13,545.75,59.78Z"/><path class="cls-2" d="M527,78.1c.35-.65.73-1.3,1.12-1.93l-4.61-2.83c-.43.71-.85,1.43-1.25,2.16l0,.06,4.74,2.6Z"/><path class="cls-2" d="M516,99.27c0,.86,0,1.72,0,2.57l5.4-.22c0-.76-.05-1.54,0-2.3Z"/><path class="cls-2" d="M544.37,140.1l-2.81,4.61c.71.44,1.44.86,2.17,1.26l0,0,2.6-4.74,0,0C545.67,140.87,545,140.49,544.37,140.1Z"/><path class="cls-2" d="M608.83,125.63l4.61,2.84c.44-.72.87-1.46,1.28-2.21v0L610,123.66C609.61,124.33,609.23,125,608.83,125.63Z"/><path class="cls-2" d="M614.18,76.44c-.43-.75-.87-1.49-1.32-2.21l-4.58,2.88c.41.64.81,1.31,1.19,2Z"/><path class="cls-2" d="M567.54,147.18l-.23,5.4c.85,0,1.72.06,2.57,0l0-5.41C569.08,147.23,568.3,147.22,567.54,147.18Z"/><path class="cls-2" d="M620.89,100l-5.4.22c0,.76,0,1.53,0,2.3l5.4.05C620.94,101.69,620.93,100.82,620.89,100Z"/><path class="cls-2" d="M591.15,142l2.49,4.8c.76-.39,1.52-.81,2.26-1.24l-2.73-4.67C592.52,141.28,591.84,141.65,591.15,142Z"/><path class="cls-2" d="M595.44,57.07c-.73-.44-1.47-.87-2.22-1.28l-.09-.06-2.6,4.74.09.06c.67.36,1.35.75,2,1.16Z"/><path class="cls-2" d="M571.46,95.44a6.09,6.09,0,1,1-8.27,2.41A6.09,6.09,0,0,1,571.46,95.44Z"/><path class="cls-2" d="M567.55,97.75h0a1.74,1.74,0,0,1-1.7-1.76l.54-35.59a1.73,1.73,0,0,1,1.75-1.71h0a1.75,1.75,0,0,1,1.71,1.76L569.31,96A1.75,1.75,0,0,1,567.55,97.75Z"/><path class="cls-2" d="M572.09,98.5h0a1.74,1.74,0,0,1,.59-2.38L585,88.63a1.75,1.75,0,0,1,2.38.58h0a1.74,1.74,0,0,1-.58,2.38l-12.35,7.49A1.75,1.75,0,0,1,572.09,98.5Z"/><path class="cls-16" d="M569.88,98.31a3,3,0,1,1-4,1.18A3,3,0,0,1,569.88,98.31Z"/><rect class="cls-17" x="121.64" y="425.31" width="526.59" height="15.98"/><rect class="cls-17" x="148.71" y="440.93" width="472.47" height="14.23"/><polygon class="cls-18" points="148.71 444.77 621.17 451.42 621.17 440.93 148.71 440.93 148.71 444.77"/><path class="cls-19" d="M275.53,114.87s-46.65-8.84-74-54.79L157.23,95.59s33.35,49.59,86.67,58.73Z"/><path class="cls-19" d="M518.17,235.68s46.65-8.85,74-54.79l44.26,35.51S603.12,266,549.79,275.13Z"/><rect class="cls-20" x="519.22" y="395.23" width="121.33" height="30"/><rect class="cls-10" x="528.11" y="400.91" width="75.33" height="18.63"/><circle class="cls-10" cx="624.99" cy="410.23" r="8"/><circle class="cls-13" cx="624.99" cy="410.23" r="6.22"/><rect class="cls-12" x="531.59" y="365.22" width="121.33" height="30" transform="translate(1184.51 760.45) rotate(180)"/><rect class="cls-10" x="568.7" y="370.91" width="75.33" height="18.63" transform="translate(1212.73 760.45) rotate(180)"/><circle class="cls-10" cx="547.14" cy="380.23" r="8"/><circle class="cls-13" cx="547.14" cy="380.23" r="6.22"/><rect class="cls-17" x="519.22" y="335.22" width="121.33" height="30"/><rect class="cls-10" x="528.11" y="340.91" width="75.33" height="18.63"/><circle class="cls-10" cx="624.99" cy="350.22" r="8" transform="translate(-55.21 125.27) rotate(-10.97)"/><circle class="cls-13" cx="624.99" cy="350.22" r="6.22" transform="translate(-47.87 104.21) rotate(-9.18)"/><rect class="cls-7" x="577.67" y="263.64" width="3.28" height="45.93" transform="matrix(1, -0.09, 0.09, 1, -23.78, 54.18)"/><rect class="cls-9" x="579.51" y="263.51" width="1.64" height="25.48" transform="translate(-22.84 54.25) rotate(-5.25)"/><rect class="cls-14" x="591.32" y="254.73" width="3.28" height="45.93" transform="matrix(0.99, 0.15, -0.15, 0.99, 48.95, -86.68)"/><rect class="cls-9" x="595.63" y="255.14" width="1.64" height="25.48" transform="translate(47.5 -87.32) rotate(8.72)"/><rect class="cls-12" x="599.09" y="261.62" width="3.28" height="45.93" transform="translate(21.41 -41.37) rotate(4.02)"/><rect class="cls-9" x="602.58" y="261.79" width="1.64" height="25.48" transform="translate(20.71 -41.58) rotate(4.02)"/><rect class="cls-18" x="571.84" y="290.37" width="34.52" height="44.85"/><rect class="cls-21" x="571.84" y="319.36" width="34.52" height="15.86"/><rect class="cls-19" x="485.59" y="407.75" width="86.52" height="17.56"/><rect class="cls-10" x="442.33" y="407.75" width="88" height="17.56" transform="translate(972.66 833.06) rotate(180)"/><line class="cls-22" x1="442.33" y1="410.23" x2="523.07" y2="410.23"/><line class="cls-22" x1="468.85" y1="418.78" x2="544.61" y2="418.78"/><line class="cls-22" x1="491.67" y1="414.34" x2="508.41" y2="414.34"/><line class="cls-22" x1="478.78" y1="414.34" x2="460.41" y2="414.34"/><line class="cls-22" x1="496.59" y1="422.05" x2="448.74" y2="422.05"/><line class="cls-22" x1="531.59" y1="422.05" x2="511.04" y2="422.05"/><path class="cls-13" d="M325.85,399.33H144.05a7.32,7.32,0,0,1-7.24-6.31L119.08,263.46a7.3,7.3,0,0,1,7.24-8.29H306.11Z"/><rect class="cls-13" x="196.77" y="420.2" width="64.39" height="5.03"/><polygon class="cls-23" points="221.21 425.23 191.66 425.23 204.92 340.99 234.46 340.99 221.21 425.23"/><polygon class="cls-24" points="234.44 340.99 221.19 425.23 226.45 425.23 239.7 340.99 234.44 340.99"/><polygon class="cls-23" points="306.11 255.17 313.13 255.17 333.35 399.38 325.85 399.38 306.11 255.17"/><rect class="cls-12" x="170.55" y="128.87" width="114.99" height="101.33" rx="5.03"/><rect class="cls-12" x="258.91" y="223.91" width="12.59" height="12.59" transform="translate(-85.1 254.96) rotate(-45)"/><path class="cls-17" d="M194.84,148a6.83,6.83,0,1,1-6.83-6.83A6.83,6.83,0,0,1,194.84,148Z"/><path class="cls-10" d="M273.11,148.89H200.25a1.81,1.81,0,1,0,0,3.61h72.86a1.81,1.81,0,1,0,0-3.61Z"/><path class="cls-10" d="M200.25,147.09h33.16a1.81,1.81,0,0,0,0-3.61H200.25a1.81,1.81,0,1,0,0,3.61Z"/><path class="cls-14" d="M261.25,168.68a6.84,6.84,0,1,0,6.84-6.84A6.83,6.83,0,0,0,261.25,168.68Z"/><path class="cls-10" d="M255.85,169.58H183a1.8,1.8,0,1,0,0,3.6h72.87a1.8,1.8,0,0,0,0-3.6Z"/><path class="cls-10" d="M183,167.77h33.16a1.8,1.8,0,0,0,0-3.6H183a1.8,1.8,0,1,0,0,3.6Z"/><circle class="cls-17" cx="188.01" cy="189.74" r="6.83" transform="translate(-1.37 1.37) rotate(-0.42)"/><path class="cls-10" d="M273.11,190.64H200.25a1.81,1.81,0,1,0,0,3.61h72.86a1.81,1.81,0,1,0,0-3.61Z"/><path class="cls-10" d="M200.25,188.84h33.16a1.81,1.81,0,0,0,0-3.61H200.25a1.81,1.81,0,1,0,0,3.61Z"/><circle class="cls-14" cx="268.09" cy="210.42" r="6.83" transform="translate(55.91 477.12) rotate(-89.62)"/><path class="cls-10" d="M255.85,211.32H183a1.81,1.81,0,0,0,0,3.61h72.87a1.81,1.81,0,0,0,0-3.61Z"/><path class="cls-10" d="M183,209.52h33.16a1.8,1.8,0,0,0,0-3.6H183a1.8,1.8,0,1,0,0,3.6Z"/><path class="cls-17" d="M144.66,240.85a30,30,0,1,0-5.62,3.23l7.43,4.65Z"/><path class="cls-10" d="M144.76,211.19H109.83a1.61,1.61,0,0,1-1.62-1.62h0a1.61,1.61,0,0,1,1.62-1.62h34.93a1.61,1.61,0,0,1,1.62,1.62h0A1.61,1.61,0,0,1,144.76,211.19Z"/><path class="cls-10" d="M122.93,219.25h-13.1a1.62,1.62,0,0,1-1.62-1.62h0a1.62,1.62,0,0,1,1.62-1.63h13.1a1.63,1.63,0,0,1,1.63,1.63h0A1.63,1.63,0,0,1,122.93,219.25Z"/><path class="cls-10" d="M144.76,227.3H109.83a1.61,1.61,0,0,1-1.62-1.62h0a1.61,1.61,0,0,1,1.62-1.62h34.93a1.61,1.61,0,0,1,1.62,1.62h0A1.61,1.61,0,0,1,144.76,227.3Z"/><path class="cls-14" d="M377,318.29a22.69,22.69,0,0,0-41.49,12.62L330,334.63l6,1.17a22.69,22.69,0,1,0,41-17.51Z"/><path class="cls-10" d="M370.77,326.93H344.29a1.23,1.23,0,0,1-1.23-1.23h0a1.23,1.23,0,0,1,1.23-1.23h26.48A1.23,1.23,0,0,1,372,325.7h0A1.23,1.23,0,0,1,370.77,326.93Z"/><path class="cls-10" d="M354.22,333h-9.93a1.23,1.23,0,0,1-1.23-1.23h0a1.23,1.23,0,0,1,1.23-1.23h9.93a1.23,1.23,0,0,1,1.23,1.23h0A1.23,1.23,0,0,1,354.22,333Z"/><path class="cls-10" d="M370.77,339.15H344.29a1.23,1.23,0,0,1-1.23-1.23h0a1.23,1.23,0,0,1,1.23-1.23h26.48a1.23,1.23,0,0,1,1.23,1.23h0A1.23,1.23,0,0,1,370.77,339.15Z"/></g></svg>